<?xml version="1.0" encoding="UTF-8"?>
<svg id="Layer_1" xmlns="http://www.w3.org/2000/svg" version="1.1" viewBox="0 0 24 24">
  <!-- Generator: Adobe Illustrator 30.1.0, SVG Export Plug-In . SVG Version: 2.1.1 Build 136)  -->
  <defs>
    <style>
      .st0 {
        fill: #2082ff;
      }
    </style>
  </defs>
  <path class="st0" d="M.87,18.26c-.25.38-.53.88-.76,1.25-.21.36-.1.82.25,1.04l4.97,3.05c.36.22.83.11,1.05-.25,0,0,0,0,0-.01.2-.33.45-.76.73-1.22,1.97-3.25,3.94-2.85,7.51-1.15l4.96,2.34c.38.18.84.02,1.02-.36,0,0,0-.01,0-.02l2.36-5.35c.17-.38,0-.83-.38-1-1.66-.78-3.31-1.57-4.97-2.36-6.72-3.25-12.4-3.03-16.76,4.04ZM23.13,5.74c.25-.41.53-.88.76-1.25.21-.36.1-.82-.26-1.03L18.67.4c-.36-.22-.83-.11-1.05.25,0,0,0,0,0,.01-.19.34-.45.76-.73,1.23-1.97,3.25-3.94,2.85-7.51,1.15L4.44.69c-.38-.18-.84-.02-1.02.36,0,0,0,.01,0,.02L1.05,6.42c-.17.38,0,.83.38,1,1.04.49,3.11,1.47,4.97,2.36,6.7,3.25,12.39,3.03,16.74-4.04Z"/>
</svg>