<?xml version="1.0" encoding="UTF-8"?>
<svg id="Layer_1" xmlns="http://www.w3.org/2000/svg" version="1.1" viewBox="0 0 128 128">
  <!-- Generator: Adobe Illustrator 30.1.0, SVG Export Plug-In . SVG Version: 2.1.1 Build 136)  -->
  <defs>
    <style>
      .st0 {
        fill: #010101;
      }

      .st1 {
        fill: #fff;
      }
    </style>
  </defs>
  <path class="st0" d="M45.85,33.35c.39.89.58-.27.5-.57,3.7-.57.58-2.26-.5.57ZM32.47,34.97c1.09.5,2.29-1.38,3.85-.2,5.84-1.11-2.14-1.86-3.85.2ZM28.94,36.59l.75.68c3.96.33-.6-2.58-.75-.68ZM26.66,38.56c.52-.13,1.34.17,1.84.55,4.17,2.85-.72-4.69-1.84-.55ZM45.85,33.35c.39.89.58-.27.5-.57,3.7-.57.58-2.26-.5.57ZM32.47,34.97c1.09.5,2.29-1.38,3.85-.2,5.84-1.11-2.14-1.86-3.85.2ZM28.94,36.59l.75.68c3.96.33-.6-2.58-.75-.68ZM26.66,38.56c.52-.13,1.34.17,1.84.55,4.17,2.85-.72-4.69-1.84-.55ZM48.76,43.99c-.73,3.88-1.48,2.26-.43-.63-.25-3.72-2.51,2.27-1.51,4.03,1.65,2.62,3.3-6.46,1.94-3.4ZM36.03,49.78c1.8-.36-.23-.94-1.31-1.79-2.49-3.73.37.3-.41,1.45,1.04,1.02,4.56,2.84,1.72.34ZM49.36,58.99v.55c1.15-2.84.2-4.39,0-.55ZM32.89,50.78c.48.7,1.79.39,2.41,1.08,5.54,2.29-.49-1.49-2.41-1.08ZM32.39,52.48c.38.85,1.3.92,2.07,1.13,7.31,3.38-5.3-5.58-2.07-1.13ZM45.96,58.52c-.74-5.39-2.34,2.49-.16,3.79.67,1.93,1.38,1.14,1.62-1.04-1.58.03.65-3.43-1.46-2.75ZM31.41,53.95l.82.83c5.49,1.51-5.84-5.3-.82-.83ZM30.73,54.35c-2.9-2.44.9,1.21-.28,1.16-3.06-2.23-1.81-.65-.08,1.07,1.87,2.78,3.42-1.67.36-2.23ZM41.3,62.02c-.52-1.07-5.53-6.77-3.25-2.47,2.07,5.14-1.3-.64-1.65-2.39-.38,1.07.82,4.59,1.55,5.79,1.86,2.86,1.02-1.57,3.06,1.28-1.12-2.5.53-1.14.29-2.21ZM52.97,72.96l.36.6c.8-2.6-1.99-4.25-.36-.6ZM61.51,85.64c-1.48-2.33-1.13.35.24,1.78,2.19,2.6.51-1.48-.24-1.78ZM61.51,85.64c-1.48-2.33-1.13.35.24,1.78,2.19,2.6.51-1.48-.24-1.78ZM52.97,72.96l.36.6c.8-2.6-1.99-4.25-.36-.6ZM49.36,58.99v.55c1.15-2.84.2-4.39,0-.55ZM48.76,43.99c-.73,3.88-1.48,2.26-.43-.63-.25-3.72-2.51,2.27-1.51,4.03,1.65,2.62,3.3-6.46,1.94-3.4ZM45.96,58.52c-.74-5.39-2.34,2.49-.16,3.79.67,1.93,1.38,1.14,1.62-1.04-1.58.03.65-3.43-1.46-2.75ZM41.3,62.02c-.52-1.07-5.53-6.77-3.25-2.47,2.07,5.14-1.3-.64-1.65-2.39-.38,1.07.82,4.59,1.55,5.79,1.86,2.86,1.02-1.57,3.06,1.28-1.12-2.5.53-1.14.29-2.21ZM32.89,50.78c.48.7,1.79.39,2.41,1.08,5.54,2.29-.49-1.49-2.41-1.08ZM36.03,49.78c1.8-.36-.23-.94-1.31-1.79-2.49-3.73.37.3-.41,1.45,1.04,1.02,4.56,2.84,1.72.34ZM32.39,52.48c.38.85,1.3.92,2.07,1.13,7.31,3.38-5.3-5.58-2.07-1.13ZM31.41,53.95l.82.83c5.49,1.51-5.84-5.3-.82-.83ZM30.73,54.35c-2.9-2.44.9,1.21-.28,1.16-3.06-2.23-1.81-.65-.08,1.07,1.87,2.78,3.42-1.67.36-2.23ZM26.66,38.56c.52-.13,1.34.17,1.84.55,4.17,2.85-.72-4.69-1.84-.55ZM28.94,36.59l.75.68c3.96.33-.6-2.58-.75-.68ZM30.73,54.35c-2.9-2.44.9,1.21-.28,1.16-3.06-2.23-1.81-.65-.08,1.07,1.87,2.78,3.42-1.67.36-2.23ZM31.41,53.95l.82.83c5.49,1.51-5.84-5.3-.82-.83ZM32.39,52.48c.38.85,1.3.92,2.07,1.13,7.31,3.38-5.3-5.58-2.07-1.13ZM36.03,49.78c1.8-.36-.23-.94-1.31-1.79-2.49-3.73.37.3-.41,1.45,1.04,1.02,4.56,2.84,1.72.34ZM32.47,34.97c1.09.5,2.29-1.38,3.85-.2,5.84-1.11-2.14-1.86-3.85.2ZM32.89,50.78c.48.7,1.79.39,2.41,1.08,5.54,2.29-.49-1.49-2.41-1.08ZM41.3,62.02c-.52-1.07-5.53-6.77-3.25-2.47,2.07,5.14-1.3-.64-1.65-2.39-.38,1.07.82,4.59,1.55,5.79,1.86,2.86,1.02-1.57,3.06,1.28-1.12-2.5.53-1.14.29-2.21ZM45.96,58.52c-.74-5.39-2.34,2.49-.16,3.79.67,1.93,1.38,1.14,1.62-1.04-1.58.03.65-3.43-1.46-2.75ZM45.85,33.35c.39.89.58-.27.5-.57,3.7-.57.58-2.26-.5.57ZM48.76,43.99c-.73,3.88-1.48,2.26-.43-.63-.25-3.72-2.51,2.27-1.51,4.03,1.65,2.62,3.3-6.46,1.94-3.4ZM49.36,58.99v.55c1.15-2.84.2-4.39,0-.55ZM52.97,72.96l.36.6c.8-2.6-1.99-4.25-.36-.6ZM61.51,85.64c-1.48-2.33-1.13.35.24,1.78,2.19,2.6.51-1.48-.24-1.78ZM61.51,85.64c-1.48-2.33-1.13.35.24,1.78,2.19,2.6.51-1.48-.24-1.78ZM52.97,72.96l.36.6c.8-2.6-1.99-4.25-.36-.6ZM49.36,58.99v.55c1.15-2.84.2-4.39,0-.55ZM48.76,43.99c-.73,3.88-1.48,2.26-.43-.63-.25-3.72-2.51,2.27-1.51,4.03,1.65,2.62,3.3-6.46,1.94-3.4ZM45.96,58.52c-.74-5.39-2.34,2.49-.16,3.79.67,1.93,1.38,1.14,1.62-1.04-1.58.03.65-3.43-1.46-2.75ZM41.3,62.02c-.52-1.07-5.53-6.77-3.25-2.47,2.07,5.14-1.3-.64-1.65-2.39-.38,1.07.82,4.59,1.55,5.79,1.86,2.86,1.02-1.57,3.06,1.28-1.12-2.5.53-1.14.29-2.21ZM32.89,50.78c.48.7,1.79.39,2.41,1.08,5.54,2.29-.49-1.49-2.41-1.08ZM36.03,49.78c1.8-.36-.23-.94-1.31-1.79-2.49-3.73.37.3-.41,1.45,1.04,1.02,4.56,2.84,1.72.34ZM32.39,52.48c.38.85,1.3.92,2.07,1.13,7.31,3.38-5.3-5.58-2.07-1.13ZM31.41,53.95l.82.83c5.49,1.51-5.84-5.3-.82-.83ZM30.73,54.35c-2.9-2.44.9,1.21-.28,1.16-3.06-2.23-1.81-.65-.08,1.07,1.87,2.78,3.42-1.67.36-2.23ZM45.85,33.35c.39.89.58-.27.5-.57,3.7-.57.58-2.26-.5.57ZM32.47,34.97c1.09.5,2.29-1.38,3.85-.2,5.84-1.11-2.14-1.86-3.85.2ZM28.94,36.59l.75.68c3.96.33-.6-2.58-.75-.68ZM26.66,38.56c.52-.13,1.34.17,1.84.55,4.17,2.85-.72-4.69-1.84-.55ZM26.66,38.56c.52-.13,1.34.17,1.84.55,4.17,2.85-.72-4.69-1.84-.55ZM28.94,36.59l.75.68c3.96.33-.6-2.58-.75-.68ZM30.73,54.35c-2.9-2.44.9,1.21-.28,1.16-3.06-2.23-1.81-.65-.08,1.07,1.87,2.78,3.42-1.67.36-2.23ZM31.41,53.95l.82.83c5.49,1.51-5.84-5.3-.82-.83ZM32.39,52.48c.38.85,1.3.92,2.07,1.13,7.31,3.38-5.3-5.58-2.07-1.13ZM36.03,49.78c1.8-.36-.23-.94-1.31-1.79-2.49-3.73.37.3-.41,1.45,1.04,1.02,4.56,2.84,1.72.34ZM32.47,34.97c1.09.5,2.29-1.38,3.85-.2,5.84-1.11-2.14-1.86-3.85.2ZM32.89,50.78c.48.7,1.79.39,2.41,1.08,5.54,2.29-.49-1.49-2.41-1.08ZM41.3,62.02c-.52-1.07-5.53-6.77-3.25-2.47,2.07,5.14-1.3-.64-1.65-2.39-.38,1.07.82,4.59,1.55,5.79,1.86,2.86,1.02-1.57,3.06,1.28-1.12-2.5.53-1.14.29-2.21ZM45.96,58.52c-.74-5.39-2.34,2.49-.16,3.79.67,1.93,1.38,1.14,1.62-1.04-1.58.03.65-3.43-1.46-2.75ZM45.85,33.35c.39.89.58-.27.5-.57,3.7-.57.58-2.26-.5.57ZM48.76,43.99c-.73,3.88-1.48,2.26-.43-.63-.25-3.72-2.51,2.27-1.51,4.03,1.65,2.62,3.3-6.46,1.94-3.4ZM49.36,58.99v.55c1.15-2.84.2-4.39,0-.55ZM52.97,72.96l.36.6c.8-2.6-1.99-4.25-.36-.6ZM61.51,85.64c-1.48-2.33-1.13.35.24,1.78,2.19,2.6.51-1.48-.24-1.78ZM61.51,85.64c-1.48-2.33-1.13.35.24,1.78,2.19,2.6.51-1.48-.24-1.78ZM52.97,72.96l.36.6c.8-2.6-1.99-4.25-.36-.6ZM49.36,58.99v.55c1.15-2.84.2-4.39,0-.55ZM48.76,43.99c-.73,3.88-1.48,2.26-.43-.63-.25-3.72-2.51,2.27-1.51,4.03,1.65,2.62,3.3-6.46,1.94-3.4ZM45.96,58.52c-.74-5.39-2.34,2.49-.16,3.79.67,1.93,1.38,1.14,1.62-1.04-1.58.03.65-3.43-1.46-2.75ZM41.3,62.02c-.52-1.07-5.53-6.77-3.25-2.47,2.07,5.14-1.3-.64-1.65-2.39-.38,1.07.82,4.59,1.55,5.79,1.86,2.86,1.02-1.57,3.06,1.28-1.12-2.5.53-1.14.29-2.21ZM32.89,50.78c.48.7,1.79.39,2.41,1.08,5.54,2.29-.49-1.49-2.41-1.08ZM36.03,49.78c1.8-.36-.23-.94-1.31-1.79-2.49-3.73.37.3-.41,1.45,1.04,1.02,4.56,2.84,1.72.34ZM32.39,52.48c.38.85,1.3.92,2.07,1.13,7.31,3.38-5.3-5.58-2.07-1.13ZM31.41,53.95l.82.83c5.49,1.51-5.84-5.3-.82-.83ZM30.73,54.35c-2.9-2.44.9,1.21-.28,1.16-3.06-2.23-1.81-.65-.08,1.07,1.87,2.78,3.42-1.67.36-2.23ZM45.85,33.35c.39.89.58-.27.5-.57,3.7-.57.58-2.26-.5.57ZM32.47,34.97c1.09.5,2.29-1.38,3.85-.2,5.84-1.11-2.14-1.86-3.85.2ZM28.94,36.59l.75.68c3.96.33-.6-2.58-.75-.68ZM26.66,38.56c.52-.13,1.34.17,1.84.55,4.17,2.85-.72-4.69-1.84-.55ZM26.66,38.56c.52-.13,1.34.17,1.84.55,4.17,2.85-.72-4.69-1.84-.55ZM28.94,36.59l.75.68c3.96.33-.6-2.58-.75-.68ZM30.73,54.35c-2.9-2.44.9,1.21-.28,1.16-3.06-2.23-1.81-.65-.08,1.07,1.87,2.78,3.42-1.67.36-2.23ZM31.41,53.95l.82.83c5.49,1.51-5.84-5.3-.82-.83ZM32.39,52.48c.38.85,1.3.92,2.07,1.13,7.31,3.38-5.3-5.58-2.07-1.13ZM36.03,49.78c1.8-.36-.23-.94-1.31-1.79-2.49-3.73.37.3-.41,1.45,1.04,1.02,4.56,2.84,1.72.34ZM32.47,34.97c1.09.5,2.29-1.38,3.85-.2,5.84-1.11-2.14-1.86-3.85.2ZM32.89,50.78c.48.7,1.79.39,2.41,1.08,5.54,2.29-.49-1.49-2.41-1.08ZM41.3,62.02c-.52-1.07-5.53-6.77-3.25-2.47,2.07,5.14-1.3-.64-1.65-2.39-.38,1.07.82,4.59,1.55,5.79,1.86,2.86,1.02-1.57,3.06,1.28-1.12-2.5.53-1.14.29-2.21ZM45.96,58.52c-.74-5.39-2.34,2.49-.16,3.79.67,1.93,1.38,1.14,1.62-1.04-1.58.03.65-3.43-1.46-2.75ZM45.85,33.35c.39.89.58-.27.5-.57,3.7-.57.58-2.26-.5.57ZM48.76,43.99c-.73,3.88-1.48,2.26-.43-.63-.25-3.72-2.51,2.27-1.51,4.03,1.65,2.62,3.3-6.46,1.94-3.4ZM49.36,58.99v.55c1.15-2.84.2-4.39,0-.55ZM52.97,72.96l.36.6c.8-2.6-1.99-4.25-.36-.6ZM61.51,85.64c-1.48-2.33-1.13.35.24,1.78,2.19,2.6.51-1.48-.24-1.78ZM61.51,85.64c-1.48-2.33-1.13.35.24,1.78,2.19,2.6.51-1.48-.24-1.78ZM52.97,72.96l.36.6c.8-2.6-1.99-4.25-.36-.6ZM49.36,58.99v.55c1.15-2.84.2-4.39,0-.55ZM48.76,43.99c-.73,3.88-1.48,2.26-.43-.63-.25-3.72-2.51,2.27-1.51,4.03,1.65,2.62,3.3-6.46,1.94-3.4ZM45.96,58.52c-.74-5.39-2.34,2.49-.16,3.79.67,1.93,1.38,1.14,1.62-1.04-1.58.03.65-3.43-1.46-2.75ZM41.3,62.02c-.52-1.07-5.53-6.77-3.25-2.47,2.07,5.14-1.3-.64-1.65-2.39-.38,1.07.82,4.59,1.55,5.79,1.86,2.86,1.02-1.57,3.06,1.28-1.12-2.5.53-1.14.29-2.21ZM32.89,50.78c.48.7,1.79.39,2.41,1.08,5.54,2.29-.49-1.49-2.41-1.08ZM36.03,49.78c1.8-.36-.23-.94-1.31-1.79-2.49-3.73.37.3-.41,1.45,1.04,1.02,4.56,2.84,1.72.34ZM32.39,52.48c.38.85,1.3.92,2.07,1.13,7.31,3.38-5.3-5.58-2.07-1.13ZM31.41,53.95l.82.83c5.49,1.51-5.84-5.3-.82-.83ZM30.73,54.35c-2.9-2.44.9,1.21-.28,1.16-3.06-2.23-1.81-.65-.08,1.07,1.87,2.78,3.42-1.67.36-2.23ZM45.85,33.35c.39.89.58-.27.5-.57,3.7-.57.58-2.26-.5.57ZM32.47,34.97c1.09.5,2.29-1.38,3.85-.2,5.84-1.11-2.14-1.86-3.85.2ZM28.94,36.59l.75.68c3.96.33-.6-2.58-.75-.68ZM26.66,38.56c.52-.13,1.34.17,1.84.55,4.17,2.85-.72-4.69-1.84-.55ZM26.66,38.56c.52-.13,1.34.17,1.84.55,4.17,2.85-.72-4.69-1.84-.55ZM28.94,36.59l.75.68c3.96.33-.6-2.58-.75-.68ZM30.73,54.35c-2.9-2.44.9,1.21-.28,1.16-3.06-2.23-1.81-.65-.08,1.07,1.87,2.78,3.42-1.67.36-2.23ZM31.41,53.95l.82.83c5.49,1.51-5.84-5.3-.82-.83ZM32.39,52.48c.38.85,1.3.92,2.07,1.13,7.31,3.38-5.3-5.58-2.07-1.13ZM36.03,49.78c1.8-.36-.23-.94-1.31-1.79-2.49-3.73.37.3-.41,1.45,1.04,1.02,4.56,2.84,1.72.34ZM32.47,34.97c1.09.5,2.29-1.38,3.85-.2,5.84-1.11-2.14-1.86-3.85.2ZM32.89,50.78c.48.7,1.79.39,2.41,1.08,5.54,2.29-.49-1.49-2.41-1.08ZM41.3,62.02c-.52-1.07-5.53-6.77-3.25-2.47,2.07,5.14-1.3-.64-1.65-2.39-.38,1.07.82,4.59,1.55,5.79,1.86,2.86,1.02-1.57,3.06,1.28-1.12-2.5.53-1.14.29-2.21ZM45.96,58.52c-.74-5.39-2.34,2.49-.16,3.79.67,1.93,1.38,1.14,1.62-1.04-1.58.03.65-3.43-1.46-2.75ZM45.85,33.35c.39.89.58-.27.5-.57,3.7-.57.58-2.26-.5.57ZM48.76,43.99c-.73,3.88-1.48,2.26-.43-.63-.25-3.72-2.51,2.27-1.51,4.03,1.65,2.62,3.3-6.46,1.94-3.4ZM49.36,58.99v.55c1.15-2.84.2-4.39,0-.55ZM52.97,72.96l.36.6c.8-2.6-1.99-4.25-.36-.6ZM61.51,85.64c-1.48-2.33-1.13.35.24,1.78,2.19,2.6.51-1.48-.24-1.78ZM61.51,85.64c-1.48-2.33-1.13.35.24,1.78,2.19,2.6.51-1.48-.24-1.78ZM52.97,72.96l.36.6c.8-2.6-1.99-4.25-.36-.6ZM49.36,58.99v.55c1.15-2.84.2-4.39,0-.55ZM48.76,43.99c-.73,3.88-1.48,2.26-.43-.63-.25-3.72-2.51,2.27-1.51,4.03,1.65,2.62,3.3-6.46,1.94-3.4ZM45.96,58.52c-.74-5.39-2.34,2.49-.16,3.79.67,1.93,1.38,1.14,1.62-1.04-1.58.03.65-3.43-1.46-2.75ZM41.3,62.02c-.52-1.07-5.53-6.77-3.25-2.47,2.07,5.14-1.3-.64-1.65-2.39-.38,1.07.82,4.59,1.55,5.79,1.86,2.86,1.02-1.57,3.06,1.28-1.12-2.5.53-1.14.29-2.21ZM32.89,50.78c.48.7,1.79.39,2.41,1.08,5.54,2.29-.49-1.49-2.41-1.08ZM36.03,49.78c1.8-.36-.23-.94-1.31-1.79-2.49-3.73.37.3-.41,1.45,1.04,1.02,4.56,2.84,1.72.34ZM32.39,52.48c.38.85,1.3.92,2.07,1.13,7.31,3.38-5.3-5.58-2.07-1.13ZM31.41,53.95l.82.83c5.49,1.51-5.84-5.3-.82-.83ZM30.73,54.35c-2.9-2.44.9,1.21-.28,1.16-3.06-2.23-1.81-.65-.08,1.07,1.87,2.78,3.42-1.67.36-2.23ZM45.85,33.35c.39.89.58-.27.5-.57,3.7-.57.58-2.26-.5.57ZM32.47,34.97c1.09.5,2.29-1.38,3.85-.2,5.84-1.11-2.14-1.86-3.85.2ZM28.94,36.59l.75.68c3.96.33-.6-2.58-.75-.68ZM26.66,38.56c.52-.13,1.34.17,1.84.55,4.17,2.85-.72-4.69-1.84-.55ZM26.66,38.56c.52-.13,1.34.17,1.84.55,4.17,2.85-.72-4.69-1.84-.55ZM28.94,36.59l.75.68c3.96.33-.6-2.58-.75-.68ZM30.73,54.35c-2.9-2.44.9,1.21-.28,1.16-3.06-2.23-1.81-.65-.08,1.07,1.87,2.78,3.42-1.67.36-2.23ZM31.41,53.95l.82.83c5.49,1.51-5.84-5.3-.82-.83ZM32.39,52.48c.38.85,1.3.92,2.07,1.13,7.31,3.38-5.3-5.58-2.07-1.13ZM36.03,49.78c1.8-.36-.23-.94-1.31-1.79-2.49-3.73.37.3-.41,1.45,1.04,1.02,4.56,2.84,1.72.34ZM32.47,34.97c1.09.5,2.29-1.38,3.85-.2,5.84-1.11-2.14-1.86-3.85.2ZM32.89,50.78c.48.7,1.79.39,2.41,1.08,5.54,2.29-.49-1.49-2.41-1.08ZM41.3,62.02c-.52-1.07-5.53-6.77-3.25-2.47,2.07,5.14-1.3-.64-1.65-2.39-.38,1.07.82,4.59,1.55,5.79,1.86,2.86,1.02-1.57,3.06,1.28-1.12-2.5.53-1.14.29-2.21ZM45.96,58.52c-.74-5.39-2.34,2.49-.16,3.79.67,1.93,1.38,1.14,1.62-1.04-1.58.03.65-3.43-1.46-2.75ZM45.85,33.35c.39.89.58-.27.5-.57,3.7-.57.58-2.26-.5.57ZM48.76,43.99c-.73,3.88-1.48,2.26-.43-.63-.25-3.72-2.51,2.27-1.51,4.03,1.65,2.62,3.3-6.46,1.94-3.4ZM49.36,58.99v.55c1.15-2.84.2-4.39,0-.55ZM52.97,72.96l.36.6c.8-2.6-1.99-4.25-.36-.6ZM61.51,85.64c-1.48-2.33-1.13.35.24,1.78,2.19,2.6.51-1.48-.24-1.78ZM61.51,85.64c-1.48-2.33-1.13.35.24,1.78,2.19,2.6.51-1.48-.24-1.78ZM52.97,72.96l.36.6c.8-2.6-1.99-4.25-.36-.6ZM49.36,58.99v.55c1.15-2.84.2-4.39,0-.55ZM48.76,43.99c-.73,3.88-1.48,2.26-.43-.63-.25-3.72-2.51,2.27-1.51,4.03,1.65,2.62,3.3-6.46,1.94-3.4ZM45.96,58.52c-.74-5.39-2.34,2.49-.16,3.79.67,1.93,1.38,1.14,1.62-1.04-1.58.03.65-3.43-1.46-2.75ZM41.3,62.02c-.52-1.07-5.53-6.77-3.25-2.47,2.07,5.14-1.3-.64-1.65-2.39-.38,1.07.82,4.59,1.55,5.79,1.86,2.86,1.02-1.57,3.06,1.28-1.12-2.5.53-1.14.29-2.21ZM32.89,50.78c.48.7,1.79.39,2.41,1.08,5.54,2.29-.49-1.49-2.41-1.08ZM36.03,49.78c1.8-.36-.23-.94-1.31-1.79-2.49-3.73.37.3-.41,1.45,1.04,1.02,4.56,2.84,1.72.34ZM32.39,52.48c.38.85,1.3.92,2.07,1.13,7.31,3.38-5.3-5.58-2.07-1.13ZM31.41,53.95l.82.83c5.49,1.51-5.84-5.3-.82-.83ZM30.73,54.35c-2.9-2.44.9,1.21-.28,1.16-3.06-2.23-1.81-.65-.08,1.07,1.87,2.78,3.42-1.67.36-2.23ZM45.85,33.35c.39.89.58-.27.5-.57,3.7-.57.58-2.26-.5.57ZM32.47,34.97c1.09.5,2.29-1.38,3.85-.2,5.84-1.11-2.14-1.86-3.85.2ZM28.94,36.59l.75.68c3.96.33-.6-2.58-.75-.68ZM26.66,38.56c.52-.13,1.34.17,1.84.55,4.17,2.85-.72-4.69-1.84-.55ZM26.66,38.56c.52-.13,1.34.17,1.84.55,4.17,2.85-.72-4.69-1.84-.55ZM28.94,36.59l.75.68c3.96.33-.6-2.58-.75-.68ZM30.73,54.35c-2.9-2.44.9,1.21-.28,1.16-3.06-2.23-1.81-.65-.08,1.07,1.87,2.78,3.42-1.67.36-2.23ZM31.41,53.95l.82.83c5.49,1.51-5.84-5.3-.82-.83ZM32.39,52.48c.38.85,1.3.92,2.07,1.13,7.31,3.38-5.3-5.58-2.07-1.13ZM36.03,49.78c1.8-.36-.23-.94-1.31-1.79-2.49-3.73.37.3-.41,1.45,1.04,1.02,4.56,2.84,1.72.34ZM32.47,34.97c1.09.5,2.29-1.38,3.85-.2,5.84-1.11-2.14-1.86-3.85.2ZM32.89,50.78c.48.7,1.79.39,2.41,1.08,5.54,2.29-.49-1.49-2.41-1.08ZM41.3,62.02c-.52-1.07-5.53-6.77-3.25-2.47,2.07,5.14-1.3-.64-1.65-2.39-.38,1.07.82,4.59,1.55,5.79,1.86,2.86,1.02-1.57,3.06,1.28-1.12-2.5.53-1.14.29-2.21ZM45.96,58.52c-.74-5.39-2.34,2.49-.16,3.79.67,1.93,1.38,1.14,1.62-1.04-1.58.03.65-3.43-1.46-2.75ZM45.85,33.35c.39.89.58-.27.5-.57,3.7-.57.58-2.26-.5.57ZM48.76,43.99c-.73,3.88-1.48,2.26-.43-.63-.25-3.72-2.51,2.27-1.51,4.03,1.65,2.62,3.3-6.46,1.94-3.4ZM49.36,58.99v.55c1.15-2.84.2-4.39,0-.55ZM52.97,72.96l.36.6c.8-2.6-1.99-4.25-.36-.6ZM61.51,85.64c-1.48-2.33-1.13.35.24,1.78,2.19,2.6.51-1.48-.24-1.78ZM61.51,85.64c-1.48-2.33-1.13.35.24,1.78,2.19,2.6.51-1.48-.24-1.78ZM52.97,72.96l.36.6c.8-2.6-1.99-4.25-.36-.6ZM49.36,58.99v.55c1.15-2.84.2-4.39,0-.55ZM48.76,43.99c-.73,3.88-1.48,2.26-.43-.63-.25-3.72-2.51,2.27-1.51,4.03,1.65,2.62,3.3-6.46,1.94-3.4ZM45.96,58.52c-.74-5.39-2.34,2.49-.16,3.79.67,1.93,1.38,1.14,1.62-1.04-1.58.03.65-3.43-1.46-2.75ZM41.3,62.02c-.52-1.07-5.53-6.77-3.25-2.47,2.07,5.14-1.3-.64-1.65-2.39-.38,1.07.82,4.59,1.55,5.79,1.86,2.86,1.02-1.57,3.06,1.28-1.12-2.5.53-1.14.29-2.21ZM32.89,50.78c.48.7,1.79.39,2.41,1.08,5.54,2.29-.49-1.49-2.41-1.08ZM36.03,49.78c1.8-.36-.23-.94-1.31-1.79-2.49-3.73.37.3-.41,1.45,1.04,1.02,4.56,2.84,1.72.34ZM32.39,52.48c.38.85,1.3.92,2.07,1.13,7.31,3.38-5.3-5.58-2.07-1.13ZM31.41,53.95l.82.83c5.49,1.51-5.84-5.3-.82-.83ZM30.73,54.35c-2.9-2.44.9,1.21-.28,1.16-3.06-2.23-1.81-.65-.08,1.07,1.87,2.78,3.42-1.67.36-2.23ZM45.85,33.35c.39.89.58-.27.5-.57,3.7-.57.58-2.26-.5.57ZM32.47,34.97c1.09.5,2.29-1.38,3.85-.2,5.84-1.11-2.14-1.86-3.85.2ZM28.94,36.59l.75.68c3.96.33-.6-2.58-.75-.68ZM26.66,38.56c.52-.13,1.34.17,1.84.55,4.17,2.85-.72-4.69-1.84-.55ZM26.66,38.56c.52-.13,1.34.17,1.84.55,4.17,2.85-.72-4.69-1.84-.55ZM28.94,36.59l.75.68c3.96.33-.6-2.58-.75-.68ZM30.73,54.35c-2.9-2.44.9,1.21-.28,1.16-3.06-2.23-1.81-.65-.08,1.07,1.87,2.78,3.42-1.67.36-2.23ZM31.41,53.95l.82.83c5.49,1.51-5.84-5.3-.82-.83ZM32.39,52.48c.38.85,1.3.92,2.07,1.13,7.31,3.38-5.3-5.58-2.07-1.13ZM36.03,49.78c1.8-.36-.23-.94-1.31-1.79-2.49-3.73.37.3-.41,1.45,1.04,1.02,4.56,2.84,1.72.34ZM32.47,34.97c1.09.5,2.29-1.38,3.85-.2,5.84-1.11-2.14-1.86-3.85.2ZM32.89,50.78c.48.7,1.79.39,2.41,1.08,5.54,2.29-.49-1.49-2.41-1.08ZM41.3,62.02c-.52-1.07-5.53-6.77-3.25-2.47,2.07,5.14-1.3-.64-1.65-2.39-.38,1.07.82,4.59,1.55,5.79,1.86,2.86,1.02-1.57,3.06,1.28-1.12-2.5.53-1.14.29-2.21ZM45.96,58.52c-.74-5.39-2.34,2.49-.16,3.79.67,1.93,1.38,1.14,1.62-1.04-1.58.03.65-3.43-1.46-2.75ZM45.85,33.35c.39.89.58-.27.5-.57,3.7-.57.58-2.26-.5.57ZM48.76,43.99c-.73,3.88-1.48,2.26-.43-.63-.25-3.72-2.51,2.27-1.51,4.03,1.65,2.62,3.3-6.46,1.94-3.4ZM49.36,58.99v.55c1.15-2.84.2-4.39,0-.55ZM52.97,72.96l.36.6c.8-2.6-1.99-4.25-.36-.6ZM61.51,85.64c-1.48-2.33-1.13.35.24,1.78,2.19,2.6.51-1.48-.24-1.78ZM61.51,85.64c-1.48-2.33-1.13.35.24,1.78,2.19,2.6.51-1.48-.24-1.78ZM52.97,72.96l.36.6c.8-2.6-1.99-4.25-.36-.6ZM49.36,58.99v.55c1.15-2.84.2-4.39,0-.55ZM48.76,43.99c-.73,3.88-1.48,2.26-.43-.63-.25-3.72-2.51,2.27-1.51,4.03,1.65,2.62,3.3-6.46,1.94-3.4ZM45.96,58.52c-.74-5.39-2.34,2.49-.16,3.79.67,1.93,1.38,1.14,1.62-1.04-1.58.03.65-3.43-1.46-2.75ZM41.3,62.02c-.52-1.07-5.53-6.77-3.25-2.47,2.07,5.14-1.3-.64-1.65-2.39-.38,1.07.82,4.59,1.55,5.79,1.86,2.86,1.02-1.57,3.06,1.28-1.12-2.5.53-1.14.29-2.21ZM32.89,50.78c.48.7,1.79.39,2.41,1.08,5.54,2.29-.49-1.49-2.41-1.08ZM36.03,49.78c1.8-.36-.23-.94-1.31-1.79-2.49-3.73.37.3-.41,1.45,1.04,1.02,4.56,2.84,1.72.34ZM32.39,52.48c.38.85,1.3.92,2.07,1.13,7.31,3.38-5.3-5.58-2.07-1.13ZM31.41,53.95l.82.83c5.49,1.51-5.84-5.3-.82-.83ZM30.73,54.35c-2.9-2.44.9,1.21-.28,1.16-3.06-2.23-1.81-.65-.08,1.07,1.87,2.78,3.42-1.67.36-2.23ZM45.85,33.35c.39.89.58-.27.5-.57,3.7-.57.58-2.26-.5.57ZM32.47,34.97c1.09.5,2.29-1.38,3.85-.2,5.84-1.11-2.14-1.86-3.85.2ZM28.94,36.59l.75.68c3.96.33-.6-2.58-.75-.68ZM26.66,38.56c.52-.13,1.34.17,1.84.55,4.17,2.85-.72-4.69-1.84-.55ZM26.66,38.56c.52-.13,1.34.17,1.84.55,4.17,2.85-.72-4.69-1.84-.55ZM28.94,36.59l.75.68c3.96.33-.6-2.58-.75-.68ZM30.73,54.35c-2.9-2.44.9,1.21-.28,1.16-3.06-2.23-1.81-.65-.08,1.07,1.87,2.78,3.42-1.67.36-2.23ZM31.41,53.95l.82.83c5.49,1.51-5.84-5.3-.82-.83ZM32.39,52.48c.38.85,1.3.92,2.07,1.13,7.31,3.38-5.3-5.58-2.07-1.13ZM36.03,49.78c1.8-.36-.23-.94-1.31-1.79-2.49-3.73.37.3-.41,1.45,1.04,1.02,4.56,2.84,1.72.34ZM32.47,34.97c1.09.5,2.29-1.38,3.85-.2,5.84-1.11-2.14-1.86-3.85.2ZM32.89,50.78c.48.7,1.79.39,2.41,1.08,5.54,2.29-.49-1.49-2.41-1.08ZM41.3,62.02c-.52-1.07-5.53-6.77-3.25-2.47,2.07,5.14-1.3-.64-1.65-2.39-.38,1.07.82,4.59,1.55,5.79,1.86,2.86,1.02-1.57,3.06,1.28-1.12-2.5.53-1.14.29-2.21ZM45.96,58.52c-.74-5.39-2.34,2.49-.16,3.79.67,1.93,1.38,1.14,1.62-1.04-1.58.03.65-3.43-1.46-2.75ZM45.85,33.35c.39.89.58-.27.5-.57,3.7-.57.58-2.26-.5.57ZM48.76,43.99c-.73,3.88-1.48,2.26-.43-.63-.25-3.72-2.51,2.27-1.51,4.03,1.65,2.62,3.3-6.46,1.94-3.4ZM49.36,58.99v.55c1.15-2.84.2-4.39,0-.55ZM52.97,72.96l.36.6c.8-2.6-1.99-4.25-.36-.6ZM61.51,85.64c-1.48-2.33-1.13.35.24,1.78,2.19,2.6.51-1.48-.24-1.78ZM61.51,85.64c-1.48-2.33-1.13.35.24,1.78,2.19,2.6.51-1.48-.24-1.78ZM52.97,72.96l.36.6c.8-2.6-1.99-4.25-.36-.6ZM49.36,58.99v.55c1.15-2.84.2-4.39,0-.55ZM48.76,43.99c-.73,3.88-1.48,2.26-.43-.63-.25-3.72-2.51,2.27-1.51,4.03,1.65,2.62,3.3-6.46,1.94-3.4ZM45.96,58.52c-.74-5.39-2.34,2.49-.16,3.79.67,1.93,1.38,1.14,1.62-1.04-1.58.03.65-3.43-1.46-2.75ZM41.3,62.02c-.52-1.07-5.53-6.77-3.25-2.47,2.07,5.14-1.3-.64-1.65-2.39-.38,1.07.82,4.59,1.55,5.79,1.86,2.86,1.02-1.57,3.06,1.28-1.12-2.5.53-1.14.29-2.21ZM32.89,50.78c.48.7,1.79.39,2.41,1.08,5.54,2.29-.49-1.49-2.41-1.08ZM36.03,49.78c1.8-.36-.23-.94-1.31-1.79-2.49-3.73.37.3-.41,1.45,1.04,1.02,4.56,2.84,1.72.34ZM32.39,52.48c.38.85,1.3.92,2.07,1.13,7.31,3.38-5.3-5.58-2.07-1.13ZM31.41,53.95l.82.83c5.49,1.51-5.84-5.3-.82-.83ZM30.73,54.35c-2.9-2.44.9,1.21-.28,1.16-3.06-2.23-1.81-.65-.08,1.07,1.87,2.78,3.42-1.67.36-2.23ZM45.85,33.35c.39.89.58-.27.5-.57,3.7-.57.58-2.26-.5.57ZM32.47,34.97c1.09.5,2.29-1.38,3.85-.2,5.84-1.11-2.14-1.86-3.85.2ZM28.94,36.59l.75.68c3.96.33-.6-2.58-.75-.68ZM26.66,38.56c.52-.13,1.34.17,1.84.55,4.17,2.85-.72-4.69-1.84-.55ZM26.66,38.56c.52-.13,1.34.17,1.84.55,4.17,2.85-.72-4.69-1.84-.55ZM28.94,36.59l.75.68c3.96.33-.6-2.58-.75-.68ZM30.73,54.35c-2.9-2.44.9,1.21-.28,1.16-3.06-2.23-1.81-.65-.08,1.07,1.87,2.78,3.42-1.67.36-2.23ZM31.41,53.95l.82.83c5.49,1.51-5.84-5.3-.82-.83ZM32.39,52.48c.38.85,1.3.92,2.07,1.13,7.31,3.38-5.3-5.58-2.07-1.13ZM36.03,49.78c1.8-.36-.23-.94-1.31-1.79-2.49-3.73.37.3-.41,1.45,1.04,1.02,4.56,2.84,1.72.34ZM32.47,34.97c1.09.5,2.29-1.38,3.85-.2,5.84-1.11-2.14-1.86-3.85.2ZM32.89,50.78c.48.7,1.79.39,2.41,1.08,5.54,2.29-.49-1.49-2.41-1.08ZM41.3,62.02c-.52-1.07-5.53-6.77-3.25-2.47,2.07,5.14-1.3-.64-1.65-2.39-.38,1.07.82,4.59,1.55,5.79,1.86,2.86,1.02-1.57,3.06,1.28-1.12-2.5.53-1.14.29-2.21ZM45.96,58.52c-.74-5.39-2.34,2.49-.16,3.79.67,1.93,1.38,1.14,1.62-1.04-1.58.03.65-3.43-1.46-2.75ZM45.85,33.35c.39.89.58-.27.5-.57,3.7-.57.58-2.26-.5.57ZM48.76,43.99c-.73,3.88-1.48,2.26-.43-.63-.25-3.72-2.51,2.27-1.51,4.03,1.65,2.62,3.3-6.46,1.94-3.4ZM49.36,58.99v.55c1.15-2.84.2-4.39,0-.55ZM52.97,72.96l.36.6c.8-2.6-1.99-4.25-.36-.6ZM61.51,85.64c-1.48-2.33-1.13.35.24,1.78,2.19,2.6.51-1.48-.24-1.78ZM61.51,85.64c-1.48-2.33-1.13.35.24,1.78,2.19,2.6.51-1.48-.24-1.78ZM52.97,72.96l.36.6c.8-2.6-1.99-4.25-.36-.6ZM49.36,58.99v.55c1.15-2.84.2-4.39,0-.55ZM48.76,43.99c-.73,3.88-1.48,2.26-.43-.63-.25-3.72-2.51,2.27-1.51,4.03,1.65,2.62,3.3-6.46,1.94-3.4ZM45.96,58.52c-.74-5.39-2.34,2.49-.16,3.79.67,1.93,1.38,1.14,1.62-1.04-1.58.03.65-3.43-1.46-2.75ZM41.3,62.02c-.52-1.07-5.53-6.77-3.25-2.47,2.07,5.14-1.3-.64-1.65-2.39-.38,1.07.82,4.59,1.55,5.79,1.86,2.86,1.02-1.57,3.06,1.28-1.12-2.5.53-1.14.29-2.21ZM32.89,50.78c.48.7,1.79.39,2.41,1.08,5.54,2.29-.49-1.49-2.41-1.08ZM36.03,49.78c1.8-.36-.23-.94-1.31-1.79-2.49-3.73.37.3-.41,1.45,1.04,1.02,4.56,2.84,1.72.34ZM32.39,52.48c.38.85,1.3.92,2.07,1.13,7.31,3.38-5.3-5.58-2.07-1.13ZM31.41,53.95l.82.83c5.49,1.51-5.84-5.3-.82-.83ZM30.73,54.35c-2.9-2.44.9,1.21-.28,1.16-3.06-2.23-1.81-.65-.08,1.07,1.87,2.78,3.42-1.67.36-2.23ZM45.85,33.35c.39.89.58-.27.5-.57,3.7-.57.58-2.26-.5.57ZM32.47,34.97c1.09.5,2.29-1.38,3.85-.2,5.84-1.11-2.14-1.86-3.85.2ZM28.94,36.59l.75.68c3.96.33-.6-2.58-.75-.68ZM26.66,38.56c.52-.13,1.34.17,1.84.55,4.17,2.85-.72-4.69-1.84-.55ZM26.66,38.56c.52-.13,1.34.17,1.84.55,4.17,2.85-.72-4.69-1.84-.55ZM28.94,36.59l.75.68c3.96.33-.6-2.58-.75-.68ZM30.73,54.35c-2.9-2.44.9,1.21-.28,1.16-3.06-2.23-1.81-.65-.08,1.07,1.87,2.78,3.42-1.67.36-2.23ZM31.41,53.95l.82.83c5.49,1.51-5.84-5.3-.82-.83ZM32.39,52.48c.38.85,1.3.92,2.07,1.13,7.31,3.38-5.3-5.58-2.07-1.13ZM36.03,49.78c1.8-.36-.23-.94-1.31-1.79-2.49-3.73.37.3-.41,1.45,1.04,1.02,4.56,2.84,1.72.34ZM32.47,34.97c1.09.5,2.29-1.38,3.85-.2,5.84-1.11-2.14-1.86-3.85.2ZM32.89,50.78c.48.7,1.79.39,2.41,1.08,5.54,2.29-.49-1.49-2.41-1.08ZM41.3,62.02c-.52-1.07-5.53-6.77-3.25-2.47,2.07,5.14-1.3-.64-1.65-2.39-.38,1.07.82,4.59,1.55,5.79,1.86,2.86,1.02-1.57,3.06,1.28-1.12-2.5.53-1.14.29-2.21ZM45.96,58.52c-.74-5.39-2.34,2.49-.16,3.79.67,1.93,1.38,1.14,1.62-1.04-1.58.03.65-3.43-1.46-2.75ZM45.85,33.35c.39.89.58-.27.5-.57,3.7-.57.58-2.26-.5.57ZM48.76,43.99c-.73,3.88-1.48,2.26-.43-.63-.25-3.72-2.51,2.27-1.51,4.03,1.65,2.62,3.3-6.46,1.94-3.4ZM49.36,58.99v.55c1.15-2.84.2-4.39,0-.55ZM52.97,72.96l.36.6c.8-2.6-1.99-4.25-.36-.6ZM61.51,85.64c-1.48-2.33-1.13.35.24,1.78,2.19,2.6.51-1.48-.24-1.78ZM61.51,85.64c-1.48-2.33-1.13.35.24,1.78,2.19,2.6.51-1.48-.24-1.78ZM52.97,72.96l.36.6c.8-2.6-1.99-4.25-.36-.6ZM49.36,58.99v.55c1.15-2.84.2-4.39,0-.55ZM48.76,43.99c-.73,3.88-1.48,2.26-.43-.63-.25-3.72-2.51,2.27-1.51,4.03,1.65,2.62,3.3-6.46,1.94-3.4ZM45.96,58.52c-.74-5.39-2.34,2.49-.16,3.79.67,1.93,1.38,1.14,1.62-1.04-1.58.03.65-3.43-1.46-2.75ZM41.3,62.02c-.52-1.07-5.53-6.77-3.25-2.47,2.07,5.14-1.3-.64-1.65-2.39-.38,1.07.82,4.59,1.55,5.79,1.86,2.86,1.02-1.57,3.06,1.28-1.12-2.5.53-1.14.29-2.21ZM32.89,50.78c.48.7,1.79.39,2.41,1.08,5.54,2.29-.49-1.49-2.41-1.08ZM36.03,49.78c1.8-.36-.23-.94-1.31-1.79-2.49-3.73.37.3-.41,1.45,1.04,1.02,4.56,2.84,1.72.34ZM32.39,52.48c.38.85,1.3.92,2.07,1.13,7.31,3.38-5.3-5.58-2.07-1.13ZM31.41,53.95l.82.83c5.49,1.51-5.84-5.3-.82-.83ZM30.73,54.35c-2.9-2.44.9,1.21-.28,1.16-3.06-2.23-1.81-.65-.08,1.07,1.87,2.78,3.42-1.67.36-2.23ZM45.85,33.35c.39.89.58-.27.5-.57,3.7-.57.58-2.26-.5.57ZM32.47,34.97c1.09.5,2.29-1.38,3.85-.2,5.84-1.11-2.14-1.86-3.85.2ZM28.94,36.59l.75.68c3.96.33-.6-2.58-.75-.68ZM26.66,38.56c.52-.13,1.34.17,1.84.55,4.17,2.85-.72-4.69-1.84-.55ZM26.66,38.56c.52-.13,1.34.17,1.84.55,4.17,2.85-.72-4.69-1.84-.55ZM28.94,36.59l.75.68c3.96.33-.6-2.58-.75-.68ZM30.73,54.35c-2.9-2.44.9,1.21-.28,1.16-3.06-2.23-1.81-.65-.08,1.07,1.87,2.78,3.42-1.67.36-2.23ZM31.41,53.95l.82.83c5.49,1.51-5.84-5.3-.82-.83ZM32.39,52.48c.38.85,1.3.92,2.07,1.13,7.31,3.38-5.3-5.58-2.07-1.13ZM36.03,49.78c1.8-.36-.23-.94-1.31-1.79-2.49-3.73.37.3-.41,1.45,1.04,1.02,4.56,2.84,1.72.34ZM32.47,34.97c1.09.5,2.29-1.38,3.85-.2,5.84-1.11-2.14-1.86-3.85.2ZM32.89,50.78c.48.7,1.79.39,2.41,1.08,5.54,2.29-.49-1.49-2.41-1.08ZM41.3,62.02c-.52-1.07-5.53-6.77-3.25-2.47,2.07,5.14-1.3-.64-1.65-2.39-.38,1.07.82,4.59,1.55,5.79,1.86,2.86,1.02-1.57,3.06,1.28-1.12-2.5.53-1.14.29-2.21ZM45.96,58.52c-.74-5.39-2.34,2.49-.16,3.79.67,1.93,1.38,1.14,1.62-1.04-1.58.03.65-3.43-1.46-2.75ZM45.85,33.35c.39.89.58-.27.5-.57,3.7-.57.58-2.26-.5.57ZM48.76,43.99c-.73,3.88-1.48,2.26-.43-.63-.25-3.72-2.51,2.27-1.51,4.03,1.65,2.62,3.3-6.46,1.94-3.4ZM49.36,58.99v.55c1.15-2.84.2-4.39,0-.55ZM52.97,72.96l.36.6c.8-2.6-1.99-4.25-.36-.6ZM61.51,85.64c-1.48-2.33-1.13.35.24,1.78,2.19,2.6.51-1.48-.24-1.78ZM61.51,85.64c-1.48-2.33-1.13.35.24,1.78,2.19,2.6.51-1.48-.24-1.78ZM52.97,72.96l.36.6c.8-2.6-1.99-4.25-.36-.6ZM49.36,58.99v.55c1.15-2.84.2-4.39,0-.55ZM48.76,43.99c-.73,3.88-1.48,2.26-.43-.63-.25-3.72-2.51,2.27-1.51,4.03,1.65,2.62,3.3-6.46,1.94-3.4ZM45.96,58.52c-.74-5.39-2.34,2.49-.16,3.79.67,1.93,1.38,1.14,1.62-1.04-1.58.03.65-3.43-1.46-2.75ZM41.3,62.02c-.52-1.07-5.53-6.77-3.25-2.47,2.07,5.14-1.3-.64-1.65-2.39-.38,1.07.82,4.59,1.55,5.79,1.86,2.86,1.02-1.57,3.06,1.28-1.12-2.5.53-1.14.29-2.21ZM32.89,50.78c.48.7,1.79.39,2.41,1.08,5.54,2.29-.49-1.49-2.41-1.08ZM36.03,49.78c1.8-.36-.23-.94-1.31-1.79-2.49-3.73.37.3-.41,1.45,1.04,1.02,4.56,2.84,1.72.34ZM32.39,52.48c.38.85,1.3.92,2.07,1.13,7.31,3.38-5.3-5.58-2.07-1.13ZM31.41,53.95l.82.83c5.49,1.51-5.84-5.3-.82-.83ZM30.73,54.35c-2.9-2.44.9,1.21-.28,1.16-3.06-2.23-1.81-.65-.08,1.07,1.87,2.78,3.42-1.67.36-2.23ZM45.85,33.35c.39.89.58-.27.5-.57,3.7-.57.58-2.26-.5.57ZM32.47,34.97c1.09.5,2.29-1.38,3.85-.2,5.84-1.11-2.14-1.86-3.85.2ZM28.94,36.59l.75.68c3.96.33-.6-2.58-.75-.68ZM26.66,38.56c.52-.13,1.34.17,1.84.55,4.17,2.85-.72-4.69-1.84-.55ZM26.66,38.56c.52-.13,1.34.17,1.84.55,4.17,2.85-.72-4.69-1.84-.55ZM28.94,36.59l.75.68c3.96.33-.6-2.58-.75-.68ZM30.73,54.35c-2.9-2.44.9,1.21-.28,1.16-3.06-2.23-1.81-.65-.08,1.07,1.87,2.78,3.42-1.67.36-2.23ZM31.41,53.95l.82.83c5.49,1.51-5.84-5.3-.82-.83ZM32.39,52.48c.38.85,1.3.92,2.07,1.13,7.31,3.38-5.3-5.58-2.07-1.13ZM36.03,49.78c1.8-.36-.23-.94-1.31-1.79-2.49-3.73.37.3-.41,1.45,1.04,1.02,4.56,2.84,1.72.34ZM32.47,34.97c1.09.5,2.29-1.38,3.85-.2,5.84-1.11-2.14-1.86-3.85.2ZM32.89,50.78c.48.7,1.79.39,2.41,1.08,5.54,2.29-.49-1.49-2.41-1.08ZM41.3,62.02c-.52-1.07-5.53-6.77-3.25-2.47,2.07,5.14-1.3-.64-1.65-2.39-.38,1.07.82,4.59,1.55,5.79,1.86,2.86,1.02-1.57,3.06,1.28-1.12-2.5.53-1.14.29-2.21ZM45.96,58.52c-.74-5.39-2.34,2.49-.16,3.79.67,1.93,1.38,1.14,1.62-1.04-1.58.03.65-3.43-1.46-2.75ZM45.85,33.35c.39.89.58-.27.5-.57,3.7-.57.58-2.26-.5.57ZM48.76,43.99c-.73,3.88-1.48,2.26-.43-.63-.25-3.72-2.51,2.27-1.51,4.03,1.65,2.62,3.3-6.46,1.94-3.4ZM49.36,58.99v.55c1.15-2.84.2-4.39,0-.55ZM52.97,72.96l.36.6c.8-2.6-1.99-4.25-.36-.6ZM61.51,85.64c-1.48-2.33-1.13.35.24,1.78,2.19,2.6.51-1.48-.24-1.78ZM61.51,85.64c-1.48-2.33-1.13.35.24,1.78,2.19,2.6.51-1.48-.24-1.78ZM52.97,72.96l.36.6c.8-2.6-1.99-4.25-.36-.6ZM49.36,58.99v.55c1.15-2.84.2-4.39,0-.55ZM48.76,43.99c-.73,3.88-1.48,2.26-.43-.63-.25-3.72-2.51,2.27-1.51,4.03,1.65,2.62,3.3-6.46,1.94-3.4ZM45.96,58.52c-.74-5.39-2.34,2.49-.16,3.79.67,1.93,1.38,1.14,1.62-1.04-1.58.03.65-3.43-1.46-2.75ZM41.3,62.02c-.52-1.07-5.53-6.77-3.25-2.47,2.07,5.14-1.3-.64-1.65-2.39-.38,1.07.82,4.59,1.55,5.79,1.86,2.86,1.02-1.57,3.06,1.28-1.12-2.5.53-1.14.29-2.21ZM32.89,50.78c.48.7,1.79.39,2.41,1.08,5.54,2.29-.49-1.49-2.41-1.08ZM36.03,49.78c1.8-.36-.23-.94-1.31-1.79-2.49-3.73.37.3-.41,1.45,1.04,1.02,4.56,2.84,1.72.34ZM32.39,52.48c.38.85,1.3.92,2.07,1.13,7.31,3.38-5.3-5.58-2.07-1.13ZM31.41,53.95l.82.83c5.49,1.51-5.84-5.3-.82-.83ZM30.73,54.35c-2.9-2.44.9,1.21-.28,1.16-3.06-2.23-1.81-.65-.08,1.07,1.87,2.78,3.42-1.67.36-2.23ZM45.85,33.35c.39.89.58-.27.5-.57,3.7-.57.58-2.26-.5.57ZM32.47,34.97c1.09.5,2.29-1.38,3.85-.2,5.84-1.11-2.14-1.86-3.85.2ZM28.94,36.59l.75.68c3.96.33-.6-2.58-.75-.68ZM26.66,38.56c.52-.13,1.34.17,1.84.55,4.17,2.85-.72-4.69-1.84-.55ZM26.66,38.56c.52-.13,1.34.17,1.84.55,4.17,2.85-.72-4.69-1.84-.55ZM28.94,36.59l.75.68c3.96.33-.6-2.58-.75-.68ZM30.73,54.35c-2.9-2.44.9,1.21-.28,1.16-3.06-2.23-1.81-.65-.08,1.07,1.87,2.78,3.42-1.67.36-2.23ZM31.41,53.95l.82.83c5.49,1.51-5.84-5.3-.82-.83ZM32.39,52.48c.38.85,1.3.92,2.07,1.13,7.31,3.38-5.3-5.58-2.07-1.13ZM36.03,49.78c1.8-.36-.23-.94-1.31-1.79-2.49-3.73.37.3-.41,1.45,1.04,1.02,4.56,2.84,1.72.34ZM32.47,34.97c1.09.5,2.29-1.38,3.85-.2,5.84-1.11-2.14-1.86-3.85.2ZM32.89,50.78c.48.7,1.79.39,2.41,1.08,5.54,2.29-.49-1.49-2.41-1.08ZM41.3,62.02c-.52-1.07-5.53-6.77-3.25-2.47,2.07,5.14-1.3-.64-1.65-2.39-.38,1.07.82,4.59,1.55,5.79,1.86,2.86,1.02-1.57,3.06,1.28-1.12-2.5.53-1.14.29-2.21ZM45.96,58.52c-.74-5.39-2.34,2.49-.16,3.79.67,1.93,1.38,1.14,1.62-1.04-1.58.03.65-3.43-1.46-2.75ZM45.85,33.35c.39.89.58-.27.5-.57,3.7-.57.58-2.26-.5.57ZM48.76,43.99c-.73,3.88-1.48,2.26-.43-.63-.25-3.72-2.51,2.27-1.51,4.03,1.65,2.62,3.3-6.46,1.94-3.4ZM49.36,58.99v.55c1.15-2.84.2-4.39,0-.55ZM52.97,72.96l.36.6c.8-2.6-1.99-4.25-.36-.6ZM61.51,85.64c-1.48-2.33-1.13.35.24,1.78,2.19,2.6.51-1.48-.24-1.78ZM61.51,85.64c-1.48-2.33-1.13.35.24,1.78,2.19,2.6.51-1.48-.24-1.78ZM52.97,72.96l.36.6c.8-2.6-1.99-4.25-.36-.6ZM49.36,58.99v.55c1.15-2.84.2-4.39,0-.55ZM48.76,43.99c-.73,3.88-1.48,2.26-.43-.63-.25-3.72-2.51,2.27-1.51,4.03,1.65,2.62,3.3-6.46,1.94-3.4ZM45.96,58.52c-.74-5.39-2.34,2.49-.16,3.79.67,1.93,1.38,1.14,1.62-1.04-1.58.03.65-3.43-1.46-2.75ZM41.3,62.02c-.52-1.07-5.53-6.77-3.25-2.47,2.07,5.14-1.3-.64-1.65-2.39-.38,1.07.82,4.59,1.55,5.79,1.86,2.86,1.02-1.57,3.06,1.28-1.12-2.5.53-1.14.29-2.21ZM32.89,50.78c.48.7,1.79.39,2.41,1.08,5.54,2.29-.49-1.49-2.41-1.08ZM36.03,49.78c1.8-.36-.23-.94-1.31-1.79-2.49-3.73.37.3-.41,1.45,1.04,1.02,4.56,2.84,1.72.34ZM32.39,52.48c.38.85,1.3.92,2.07,1.13,7.31,3.38-5.3-5.58-2.07-1.13ZM31.41,53.95l.82.83c5.49,1.51-5.84-5.3-.82-.83ZM30.73,54.35c-2.9-2.44.9,1.21-.28,1.16-3.06-2.23-1.81-.65-.08,1.07,1.87,2.78,3.42-1.67.36-2.23ZM45.85,33.35c.39.89.58-.27.5-.57,3.7-.57.58-2.26-.5.57ZM32.47,34.97c1.09.5,2.29-1.38,3.85-.2,5.84-1.11-2.14-1.86-3.85.2ZM28.94,36.59l.75.68c3.96.33-.6-2.58-.75-.68ZM26.66,38.56c.52-.13,1.34.17,1.84.55,4.17,2.85-.72-4.69-1.84-.55ZM26.66,38.56c.52-.13,1.34.17,1.84.55,4.17,2.85-.72-4.69-1.84-.55ZM28.94,36.59l.75.68c3.96.33-.6-2.58-.75-.68ZM30.73,54.35c-2.9-2.44.9,1.21-.28,1.16-3.06-2.23-1.81-.65-.08,1.07,1.87,2.78,3.42-1.67.36-2.23ZM31.41,53.95l.82.83c5.49,1.51-5.84-5.3-.82-.83ZM32.39,52.48c.38.85,1.3.92,2.07,1.13,7.31,3.38-5.3-5.58-2.07-1.13ZM36.03,49.78c1.8-.36-.23-.94-1.31-1.79-2.49-3.73.37.3-.41,1.45,1.04,1.02,4.56,2.84,1.72.34ZM32.47,34.97c1.09.5,2.29-1.38,3.85-.2,5.84-1.11-2.14-1.86-3.85.2ZM32.89,50.78c.48.7,1.79.39,2.41,1.08,5.54,2.29-.49-1.49-2.41-1.08ZM41.3,62.02c-.52-1.07-5.53-6.77-3.25-2.47,2.07,5.14-1.3-.64-1.65-2.39-.38,1.07.82,4.59,1.55,5.79,1.86,2.86,1.02-1.57,3.06,1.28-1.12-2.5.53-1.14.29-2.21ZM45.96,58.52c-.74-5.39-2.34,2.49-.16,3.79.67,1.93,1.38,1.14,1.62-1.04-1.58.03.65-3.43-1.46-2.75ZM45.85,33.35c.39.89.58-.27.5-.57,3.7-.57.58-2.26-.5.57ZM48.76,43.99c-.73,3.88-1.48,2.26-.43-.63-.25-3.72-2.51,2.27-1.51,4.03,1.65,2.62,3.3-6.46,1.94-3.4ZM49.36,58.99v.55c1.15-2.84.2-4.39,0-.55ZM52.97,72.96l.36.6c.8-2.6-1.99-4.25-.36-.6ZM61.51,85.64c-1.48-2.33-1.13.35.24,1.78,2.19,2.6.51-1.48-.24-1.78ZM61.51,85.64c-1.48-2.33-1.13.35.24,1.78,2.19,2.6.51-1.48-.24-1.78ZM52.97,72.96l.36.6c.8-2.6-1.99-4.25-.36-.6ZM49.36,58.99v.55c1.15-2.84.2-4.39,0-.55ZM48.76,43.99c-.73,3.88-1.48,2.26-.43-.63-.25-3.72-2.51,2.27-1.51,4.03,1.65,2.62,3.3-6.46,1.94-3.4ZM45.96,58.52c-.74-5.39-2.34,2.49-.16,3.79.67,1.93,1.38,1.14,1.62-1.04-1.58.03.65-3.43-1.46-2.75ZM41.3,62.02c-.52-1.07-5.53-6.77-3.25-2.47,2.07,5.14-1.3-.64-1.65-2.39-.38,1.07.82,4.59,1.55,5.79,1.86,2.86,1.02-1.57,3.06,1.28-1.12-2.5.53-1.14.29-2.21ZM32.89,50.78c.48.7,1.79.39,2.41,1.08,5.54,2.29-.49-1.49-2.41-1.08ZM36.03,49.78c1.8-.36-.23-.94-1.31-1.79-2.49-3.73.37.3-.41,1.45,1.04,1.02,4.56,2.84,1.72.34ZM32.39,52.48c.38.85,1.3.92,2.07,1.13,7.31,3.38-5.3-5.58-2.07-1.13ZM31.41,53.95l.82.83c5.49,1.51-5.84-5.3-.82-.83ZM30.73,54.35c-2.9-2.44.9,1.21-.28,1.16-3.06-2.23-1.81-.65-.08,1.07,1.87,2.78,3.42-1.67.36-2.23ZM45.85,33.35c.39.89.58-.27.5-.57,3.7-.57.58-2.26-.5.57ZM32.47,34.97c1.09.5,2.29-1.38,3.85-.2,5.84-1.11-2.14-1.86-3.85.2ZM28.94,36.59l.75.68c3.96.33-.6-2.58-.75-.68ZM26.66,38.56c.52-.13,1.34.17,1.84.55,4.17,2.85-.72-4.69-1.84-.55ZM26.66,38.56c.52-.13,1.34.17,1.84.55,4.17,2.85-.72-4.69-1.84-.55ZM28.94,36.59l.75.68c3.96.33-.6-2.58-.75-.68ZM30.73,54.35c-2.9-2.44.9,1.21-.28,1.16-3.06-2.23-1.81-.65-.08,1.07,1.87,2.78,3.42-1.67.36-2.23ZM31.41,53.95l.82.83c5.49,1.51-5.84-5.3-.82-.83ZM32.39,52.48c.38.85,1.3.92,2.07,1.13,7.31,3.38-5.3-5.58-2.07-1.13ZM36.03,49.78c1.8-.36-.23-.94-1.31-1.79-2.49-3.73.37.3-.41,1.45,1.04,1.02,4.56,2.84,1.72.34ZM32.47,34.97c1.09.5,2.29-1.38,3.85-.2,5.84-1.11-2.14-1.86-3.85.2ZM32.89,50.78c.48.7,1.79.39,2.41,1.08,5.54,2.29-.49-1.49-2.41-1.08ZM41.3,62.02c-.52-1.07-5.53-6.77-3.25-2.47,2.07,5.14-1.3-.64-1.65-2.39-.38,1.07.82,4.59,1.55,5.79,1.86,2.86,1.02-1.57,3.06,1.28-1.12-2.5.53-1.14.29-2.21ZM45.96,58.52c-.74-5.39-2.34,2.49-.16,3.79.67,1.93,1.38,1.14,1.62-1.04-1.58.03.65-3.43-1.46-2.75ZM45.85,33.35c.39.89.58-.27.5-.57,3.7-.57.58-2.26-.5.57ZM48.76,43.99c-.73,3.88-1.48,2.26-.43-.63-.25-3.72-2.51,2.27-1.51,4.03,1.65,2.62,3.3-6.46,1.94-3.4ZM49.36,58.99v.55c1.15-2.84.2-4.39,0-.55ZM52.97,72.96l.36.6c.8-2.6-1.99-4.25-.36-.6ZM61.51,85.64c-1.48-2.33-1.13.35.24,1.78,2.19,2.6.51-1.48-.24-1.78ZM61.51,85.64c-1.48-2.33-1.13.35.24,1.78,2.19,2.6.51-1.48-.24-1.78ZM52.97,72.96l.36.6c.8-2.6-1.99-4.25-.36-.6ZM49.36,58.99v.55c1.15-2.84.2-4.39,0-.55ZM48.76,43.99c-.73,3.88-1.48,2.26-.43-.63-.25-3.72-2.51,2.27-1.51,4.03,1.65,2.62,3.3-6.46,1.94-3.4ZM45.96,58.52c-.74-5.39-2.34,2.49-.16,3.79.67,1.93,1.38,1.14,1.62-1.04-1.58.03.65-3.43-1.46-2.75ZM41.3,62.02c-.52-1.07-5.53-6.77-3.25-2.47,2.07,5.14-1.3-.64-1.65-2.39-.38,1.07.82,4.59,1.55,5.79,1.86,2.86,1.02-1.57,3.06,1.28-1.12-2.5.53-1.14.29-2.21ZM32.89,50.78c.48.7,1.79.39,2.41,1.08,5.54,2.29-.49-1.49-2.41-1.08ZM36.03,49.78c1.8-.36-.23-.94-1.31-1.79-2.49-3.73.37.3-.41,1.45,1.04,1.02,4.56,2.84,1.72.34ZM32.39,52.48c.38.85,1.3.92,2.07,1.13,7.31,3.38-5.3-5.58-2.07-1.13ZM31.41,53.95l.82.83c5.49,1.51-5.84-5.3-.82-.83ZM30.73,54.35c-2.9-2.44.9,1.21-.28,1.16-3.06-2.23-1.81-.65-.08,1.07,1.87,2.78,3.42-1.67.36-2.23ZM45.85,33.35c.39.89.58-.27.5-.57,3.7-.57.58-2.26-.5.57ZM32.47,34.97c1.09.5,2.29-1.38,3.85-.2,5.84-1.11-2.14-1.86-3.85.2ZM28.94,36.59l.75.68c3.96.33-.6-2.58-.75-.68ZM26.66,38.56c.52-.13,1.34.17,1.84.55,4.17,2.85-.72-4.69-1.84-.55ZM26.66,38.56c.52-.13,1.34.17,1.84.55,4.17,2.85-.72-4.69-1.84-.55ZM28.94,36.59l.75.68c3.96.33-.6-2.58-.75-.68ZM30.73,54.35c-2.9-2.44.9,1.21-.28,1.16-3.06-2.23-1.81-.65-.08,1.07,1.87,2.78,3.42-1.67.36-2.23ZM31.41,53.95l.82.83c5.49,1.51-5.84-5.3-.82-.83ZM32.39,52.48c.38.85,1.3.92,2.07,1.13,7.31,3.38-5.3-5.58-2.07-1.13ZM36.03,49.78c1.8-.36-.23-.94-1.31-1.79-2.49-3.73.37.3-.41,1.45,1.04,1.02,4.56,2.84,1.72.34ZM32.47,34.97c1.09.5,2.29-1.38,3.85-.2,5.84-1.11-2.14-1.86-3.85.2ZM32.89,50.78c.48.7,1.79.39,2.41,1.08,5.54,2.29-.49-1.49-2.41-1.08ZM41.3,62.02c-.52-1.07-5.53-6.77-3.25-2.47,2.07,5.14-1.3-.64-1.65-2.39-.38,1.07.82,4.59,1.55,5.79,1.86,2.86,1.02-1.57,3.06,1.28-1.12-2.5.53-1.14.29-2.21ZM45.96,58.52c-.74-5.39-2.34,2.49-.16,3.79.67,1.93,1.38,1.14,1.62-1.04-1.58.03.65-3.43-1.46-2.75ZM45.85,33.35c.39.89.58-.27.5-.57,3.7-.57.58-2.26-.5.57ZM48.76,43.99c-.73,3.88-1.48,2.26-.43-.63-.25-3.72-2.51,2.27-1.51,4.03,1.65,2.62,3.3-6.46,1.94-3.4ZM49.36,58.99v.55c1.15-2.84.2-4.39,0-.55ZM52.97,72.96l.36.6c.8-2.6-1.99-4.25-.36-.6ZM61.51,85.64c-1.48-2.33-1.13.35.24,1.78,2.19,2.6.51-1.48-.24-1.78ZM61.51,85.64c-1.48-2.33-1.13.35.24,1.78,2.19,2.6.51-1.48-.24-1.78ZM52.97,72.96l.36.6c.8-2.6-1.99-4.25-.36-.6ZM49.36,58.99v.55c1.15-2.84.2-4.39,0-.55ZM48.76,43.99c-.73,3.88-1.48,2.26-.43-.63-.25-3.72-2.51,2.27-1.51,4.03,1.65,2.62,3.3-6.46,1.94-3.4ZM45.96,58.52c-.74-5.39-2.34,2.49-.16,3.79.67,1.93,1.38,1.14,1.62-1.04-1.58.03.65-3.43-1.46-2.75ZM41.3,62.02c-.52-1.07-5.53-6.77-3.25-2.47,2.07,5.14-1.3-.64-1.65-2.39-.38,1.07.82,4.59,1.55,5.79,1.86,2.86,1.02-1.57,3.06,1.28-1.12-2.5.53-1.14.29-2.21ZM32.89,50.78c.48.7,1.79.39,2.41,1.08,5.54,2.29-.49-1.49-2.41-1.08ZM36.03,49.78c1.8-.36-.23-.94-1.31-1.79-2.49-3.73.37.3-.41,1.45,1.04,1.02,4.56,2.84,1.72.34ZM32.39,52.48c.38.85,1.3.92,2.07,1.13,7.31,3.38-5.3-5.58-2.07-1.13ZM31.41,53.95l.82.83c5.49,1.51-5.84-5.3-.82-.83ZM30.73,54.35c-2.9-2.44.9,1.21-.28,1.16-3.06-2.23-1.81-.65-.08,1.07,1.87,2.78,3.42-1.67.36-2.23ZM45.85,33.35c.39.89.58-.27.5-.57,3.7-.57.58-2.26-.5.57ZM32.47,34.97c1.09.5,2.29-1.38,3.85-.2,5.84-1.11-2.14-1.86-3.85.2ZM28.94,36.59l.75.68c3.96.33-.6-2.58-.75-.68ZM26.66,38.56c.52-.13,1.34.17,1.84.55,4.17,2.85-.72-4.69-1.84-.55ZM26.66,38.56c.52-.13,1.34.17,1.84.55,4.17,2.85-.72-4.69-1.84-.55ZM28.94,36.59l.75.68c3.96.33-.6-2.58-.75-.68ZM30.73,54.35c-2.9-2.44.9,1.21-.28,1.16-3.06-2.23-1.81-.65-.08,1.07,1.87,2.78,3.42-1.67.36-2.23ZM31.41,53.95l.82.83c5.49,1.51-5.84-5.3-.82-.83ZM32.39,52.48c.38.85,1.3.92,2.07,1.13,7.31,3.38-5.3-5.58-2.07-1.13ZM36.03,49.78c1.8-.36-.23-.94-1.31-1.79-2.49-3.73.37.3-.41,1.45,1.04,1.02,4.56,2.84,1.72.34ZM32.47,34.97c1.09.5,2.29-1.38,3.85-.2,5.84-1.11-2.14-1.86-3.85.2ZM32.89,50.78c.48.7,1.79.39,2.41,1.08,5.54,2.29-.49-1.49-2.41-1.08ZM41.3,62.02c-.52-1.07-5.53-6.77-3.25-2.47,2.07,5.14-1.3-.64-1.65-2.39-.38,1.07.82,4.59,1.55,5.79,1.86,2.86,1.02-1.57,3.06,1.28-1.12-2.5.53-1.14.29-2.21ZM45.96,58.52c-.74-5.39-2.34,2.49-.16,3.79.67,1.93,1.38,1.14,1.62-1.04-1.58.03.65-3.43-1.46-2.75ZM45.85,33.35c.39.89.58-.27.5-.57,3.7-.57.58-2.26-.5.57ZM48.76,43.99c-.73,3.88-1.48,2.26-.43-.63-.25-3.72-2.51,2.27-1.51,4.03,1.65,2.62,3.3-6.46,1.94-3.4ZM49.36,58.99v.55c1.15-2.84.2-4.39,0-.55ZM52.97,72.96l.36.6c.8-2.6-1.99-4.25-.36-.6ZM61.51,85.64c-1.48-2.33-1.13.35.24,1.78,2.19,2.6.51-1.48-.24-1.78ZM61.51,85.64c-1.48-2.33-1.13.35.24,1.78,2.19,2.6.51-1.48-.24-1.78ZM52.97,72.96l.36.6c.8-2.6-1.99-4.25-.36-.6ZM49.36,58.99v.55c1.15-2.84.2-4.39,0-.55ZM48.76,43.99c-.73,3.88-1.48,2.26-.43-.63-.25-3.72-2.51,2.27-1.51,4.03,1.65,2.62,3.3-6.46,1.94-3.4ZM45.96,58.52c-.74-5.39-2.34,2.49-.16,3.79.67,1.93,1.38,1.14,1.62-1.04-1.58.03.65-3.43-1.46-2.75ZM41.3,62.02c-.52-1.07-5.53-6.77-3.25-2.47,2.07,5.14-1.3-.64-1.65-2.39-.38,1.07.82,4.59,1.55,5.79,1.86,2.86,1.02-1.57,3.06,1.28-1.12-2.5.53-1.14.29-2.21ZM32.89,50.78c.48.7,1.79.39,2.41,1.08,5.54,2.29-.49-1.49-2.41-1.08ZM36.03,49.78c1.8-.36-.23-.94-1.31-1.79-2.49-3.73.37.3-.41,1.45,1.04,1.02,4.56,2.84,1.72.34ZM32.39,52.48c.38.85,1.3.92,2.07,1.13,7.31,3.38-5.3-5.58-2.07-1.13ZM31.41,53.95l.82.83c5.49,1.51-5.84-5.3-.82-.83ZM30.73,54.35c-2.9-2.44.9,1.21-.28,1.16-3.06-2.23-1.81-.65-.08,1.07,1.87,2.78,3.42-1.67.36-2.23ZM45.85,33.35c.39.89.58-.27.5-.57,3.7-.57.58-2.26-.5.57ZM32.47,34.97c1.09.5,2.29-1.38,3.85-.2,5.84-1.11-2.14-1.86-3.85.2ZM28.94,36.59l.75.68c3.96.33-.6-2.58-.75-.68ZM26.66,38.56c.52-.13,1.34.17,1.84.55,4.17,2.85-.72-4.69-1.84-.55ZM26.66,38.56c.52-.13,1.34.17,1.84.55,4.17,2.85-.72-4.69-1.84-.55ZM28.94,36.59l.75.68c3.96.33-.6-2.58-.75-.68ZM30.73,54.35c-2.9-2.44.9,1.21-.28,1.16-3.06-2.23-1.81-.65-.08,1.07,1.87,2.78,3.42-1.67.36-2.23ZM31.41,53.95l.82.83c5.49,1.51-5.84-5.3-.82-.83ZM32.39,52.48c.38.85,1.3.92,2.07,1.13,7.31,3.38-5.3-5.58-2.07-1.13ZM36.03,49.78c1.8-.36-.23-.94-1.31-1.79-2.49-3.73.37.3-.41,1.45,1.04,1.02,4.56,2.84,1.72.34ZM32.47,34.97c1.09.5,2.29-1.38,3.85-.2,5.84-1.11-2.14-1.86-3.85.2ZM32.89,50.78c.48.7,1.79.39,2.41,1.08,5.54,2.29-.49-1.49-2.41-1.08ZM41.3,62.02c-.52-1.07-5.53-6.77-3.25-2.47,2.07,5.14-1.3-.64-1.65-2.39-.38,1.07.82,4.59,1.55,5.79,1.86,2.86,1.02-1.57,3.06,1.28-1.12-2.5.53-1.14.29-2.21ZM45.96,58.52c-.74-5.39-2.34,2.49-.16,3.79.67,1.93,1.38,1.14,1.62-1.04-1.58.03.65-3.43-1.46-2.75ZM45.85,33.35c.39.89.58-.27.5-.57,3.7-.57.58-2.26-.5.57ZM48.76,43.99c-.73,3.88-1.48,2.26-.43-.63-.25-3.72-2.51,2.27-1.51,4.03,1.65,2.62,3.3-6.46,1.94-3.4ZM49.36,58.99v.55c1.15-2.84.2-4.39,0-.55ZM52.97,72.96l.36.6c.8-2.6-1.99-4.25-.36-.6ZM61.51,85.64c-1.48-2.33-1.13.35.24,1.78,2.19,2.6.51-1.48-.24-1.78ZM61.51,85.64c-1.48-2.33-1.13.35.24,1.78,2.19,2.6.51-1.48-.24-1.78ZM52.97,72.96l.36.6c.8-2.6-1.99-4.25-.36-.6ZM49.36,58.99v.55c1.15-2.84.2-4.39,0-.55ZM48.76,43.99c-.73,3.88-1.48,2.26-.43-.63-.25-3.72-2.51,2.27-1.51,4.03,1.65,2.62,3.3-6.46,1.94-3.4ZM45.96,58.52c-.74-5.39-2.34,2.49-.16,3.79.67,1.93,1.38,1.14,1.62-1.04-1.58.03.65-3.43-1.46-2.75ZM41.3,62.02c-.52-1.07-5.53-6.77-3.25-2.47,2.07,5.14-1.3-.64-1.65-2.39-.38,1.07.82,4.59,1.55,5.79,1.86,2.86,1.02-1.57,3.06,1.28-1.12-2.5.53-1.14.29-2.21ZM32.89,50.78c.48.7,1.79.39,2.41,1.08,5.54,2.29-.49-1.49-2.41-1.08ZM36.03,49.78c1.8-.36-.23-.94-1.31-1.79-2.49-3.73.37.3-.41,1.45,1.04,1.02,4.56,2.84,1.72.34ZM32.39,52.48c.38.85,1.3.92,2.07,1.13,7.31,3.38-5.3-5.58-2.07-1.13ZM31.41,53.95l.82.83c5.49,1.51-5.84-5.3-.82-.83ZM30.73,54.35c-2.9-2.44.9,1.21-.28,1.16-3.06-2.23-1.81-.65-.08,1.07,1.87,2.78,3.42-1.67.36-2.23ZM45.85,33.35c.39.89.58-.27.5-.57,3.7-.57.58-2.26-.5.57ZM32.47,34.97c1.09.5,2.29-1.38,3.85-.2,5.84-1.11-2.14-1.86-3.85.2ZM28.94,36.59l.75.68c3.96.33-.6-2.58-.75-.68ZM26.66,38.56c.52-.13,1.34.17,1.84.55,4.17,2.85-.72-4.69-1.84-.55ZM26.66,38.56c.52-.13,1.34.17,1.84.55,4.17,2.85-.72-4.69-1.84-.55ZM28.94,36.59l.75.68c3.96.33-.6-2.58-.75-.68ZM30.73,54.35c-2.9-2.44.9,1.21-.28,1.16-3.06-2.23-1.81-.65-.08,1.07,1.87,2.78,3.42-1.67.36-2.23ZM31.41,53.95l.82.83c5.49,1.51-5.84-5.3-.82-.83ZM32.39,52.48c.38.85,1.3.92,2.07,1.13,7.31,3.38-5.3-5.58-2.07-1.13ZM36.03,49.78c1.8-.36-.23-.94-1.31-1.79-2.49-3.73.37.3-.41,1.45,1.04,1.02,4.56,2.84,1.72.34ZM32.47,34.97c1.09.5,2.29-1.38,3.85-.2,5.84-1.11-2.14-1.86-3.85.2ZM32.89,50.78c.48.7,1.79.39,2.41,1.08,5.54,2.29-.49-1.49-2.41-1.08ZM41.3,62.02c-.52-1.07-5.53-6.77-3.25-2.47,2.07,5.14-1.3-.64-1.65-2.39-.38,1.07.82,4.59,1.55,5.79,1.86,2.86,1.02-1.57,3.06,1.28-1.12-2.5.53-1.14.29-2.21ZM45.96,58.52c-.74-5.39-2.34,2.49-.16,3.79.67,1.93,1.38,1.14,1.62-1.04-1.58.03.65-3.43-1.46-2.75ZM45.85,33.35c.39.89.58-.27.5-.57,3.7-.57.58-2.26-.5.57ZM48.76,43.99c-.73,3.88-1.48,2.26-.43-.63-.25-3.72-2.51,2.27-1.51,4.03,1.65,2.62,3.3-6.46,1.94-3.4ZM49.36,58.99v.55c1.15-2.84.2-4.39,0-.55ZM52.97,72.96l.36.6c.8-2.6-1.99-4.25-.36-.6ZM61.51,85.64c-1.48-2.33-1.13.35.24,1.78,2.19,2.6.51-1.48-.24-1.78ZM61.51,85.64c-1.48-2.33-1.13.35.24,1.78,2.19,2.6.51-1.48-.24-1.78ZM52.97,72.96l.36.6c.8-2.6-1.99-4.25-.36-.6ZM49.36,58.99v.55c1.15-2.84.2-4.39,0-.55ZM48.76,43.99c-.73,3.88-1.48,2.26-.43-.63-.25-3.72-2.51,2.27-1.51,4.03,1.65,2.62,3.3-6.46,1.94-3.4ZM45.96,58.52c-.74-5.39-2.34,2.49-.16,3.79.67,1.93,1.38,1.14,1.62-1.04-1.58.03.65-3.43-1.46-2.75ZM38.05,59.55c2.07,5.14-1.3-.64-1.65-2.39-.38,1.07.82,4.59,1.55,5.79,1.86,2.86,1.02-1.57,3.06,1.28-1.12-2.5.53-1.14.29-2.21-.52-1.07-5.53-6.77-3.25-2.47ZM35.3,51.86c5.54,2.29-.49-1.49-2.41-1.08.48.7,1.79.39,2.41,1.08ZM34.31,49.44c1.04,1.02,4.56,2.84,1.72.34,1.8-.36-.23-.94-1.31-1.79-2.49-3.73.37.3-.41,1.45ZM32.39,52.48c.38.85,1.3.92,2.07,1.13,7.31,3.38-5.3-5.58-2.07-1.13ZM31.41,53.95l.82.83c5.49,1.51-5.84-5.3-.82-.83ZM30.73,54.35c-2.9-2.44.9,1.21-.28,1.16-3.06-2.23-1.81-.65-.08,1.07,1.87,2.78,3.42-1.67.36-2.23ZM45.85,33.35c.39.89.58-.27.5-.57,3.7-.57.58-2.26-.5.57ZM32.47,34.97c1.09.5,2.29-1.38,3.85-.2,5.84-1.11-2.14-1.86-3.85.2ZM28.94,36.59l.75.68c3.96.33-.6-2.58-.75-.68ZM26.66,38.56c.52-.13,1.34.17,1.84.55,4.17,2.85-.72-4.69-1.84-.55ZM112.65,101.19c-2.96,3.48-5.45-.37-9.04.71-6.11.3.47-2.74.31-5.54-3.23-2.48-6.9,3.41-8.97,5-5.12-.92-10.18-2.39-14.87-4.6-5.36-2.79-10.6-6.1-14.48-10.8-4.05-4.8-8.53-9.65-10.38-15.81-3.91-10.18-3.65-21.19-4.65-31.88.36-7.24,8.01.77,11.31-1.84-1.13-3.75-7.16-4.94-10.49-6.44-3.2-.22-4.38-3.09-7.8-3.33.17-4.02-6.28-1.81-8.63-4.67,2.31-5.96-7.64.15-6.87-5.01,3.24-6.72-9.9-5.58-4.42.33,5.26,2.97-5.19,5.16-2.14,7.15.97,2.1-.08,4.42-2.92,4.8-4.16.36-3.77,6.05.29,3.07,4.53-1.45.77.57-1.36.98-4.79,1.39-8.05,6.17-5.27,10.55,2.67,6.03,3.37,12.75,5.44,19.02,3.41,9.64,8.41,18.82,14.9,26.74,3.09,4.49,7.6,7.68,11.83,11.01,4.16,2.7,8.79,5.4,13.53,6.78,8.41,3.08,17.45,3.37,26.3,4.07,5.4,0,10.81-.39,16.13-1.34,4.79.51,8.23-3.58,12.56-1.42,2.63-2.33,6.45-1.31,9.07-3,1.94-6.59-6.66-1.3-9.38-4.53ZM60.56,36.12c-.55.16-.45-.67-.87-.81-4.47-2.28,2.16-1.48.87.81ZM35.38,25.72c-2.96-1.54.6,1.86-1.89,1.8-1.35.02-3.83-2.87-3.01-4.32,1.45.63,4.41.93,4.9,2.52ZM30.26,21.24l-.81-.04c-.21-1.68,4.82-.49.81.04ZM24.35,16.62c-2.29-1.08.03-5.16,2.44-3.24,2.87,3.86-5.26-.45-2.44,3.24ZM29.74,25.61c3.35,2.55-1.87-.01-4,1.59-3.35.34,3.67-1.89,4-1.59ZM30.73,28.91c1.93.04,10.42-3.81,7.59-.41,2.39,2.85.88,2.2-.75.37.82,1.55-.36,4.82-2.47,2.01-1.51-2.83-2.53-1.42-1.44.44.18.2.33.43.47.68-.19-.23-.35-.46-.47-.68-2.06-2.41-6.67-1.11-10.11.06-2.4-.27,6.26-2.06,7.18-2.47ZM18.88,39.09c-4.13-1.47-4.19,2.88-3.76,5.35h-.27c-3.79-4.87.42-6.86,5.21-7.48-.91,2.24,1.31,2.97,3.44,3.38,3.45-.95-2.27-1.57.34-2.47,1.43-.26-4.57-1.44.43-2.11,5.13-.87,9.75-2.87,14.83-3.93,4.58-.91,8.93-1.43,13.08-1.08,1.66,1.94-1.27,5.22-4.31,5.44-3.7,1.38-7.45,1.72-10.89,2.18-4.41-.55-7.57,3.41-12.14,3.91,1.21-2.25-1-.77-3.32-.88,1.18,4.54-8.15-1.21-2.64-2.31ZM26.07,45.69c3.68-.12,2.5,2.04.41,2.18-.05.14-1.91-.45-1.14-.96,5.75.73-4.96-1.81.73-1.22ZM22.58,52.78l-.49-.18c-3.86-1.76,2.88-.76.49.18ZM21.49,62.96c-1.46-.51-1.39-2.79-2.07-4-1.88-5.75,2.5,2.23,2.07,4ZM20.36,62.14c2.35,2.84,1.43,4.4,3.86,7.87-3.13-1.98-3.72-6.7-5.71-9.75-2.18-5.21,1.4-.29,1.85,1.88ZM43.1,97.64c-1.89-.4-3.18-2.37-4.52-3.67-3.96-2.52-6.54-6.74-8.72-10.78-2.81-4.24-6.18-8.49-8.1-13.45-2.25-5.15,1.42.38,1.94,2.31,1.18,3.77,4.89,5.93,5.26,8.43,4.11,2.37,2,6.23,5.45,7.32,1.53-.77,1.69,4.66,4.95,3.53-1.81.85.76,1.85,1.67,3.43,2.05-.28,6.56,4.54,2.07,2.88ZM34.64,66.94c2.21-.94.91,4.36,3.08,5,4.23,5.52-2.94.17-5.33-.37.31-.02-2.12-.68-1.08-.93-.77-.79-2.48-3.64,1.43-1.73,3.12,1.56,3.38.51,1.9-1.97ZM41.6,79.09c-2.14-.06-2.79-.23.27,1.64-1.2.97,2.42,1.74,1.18,3.18,3.69,2.87-.67.73-2.24-.45-.93-.64-4.71-1.93-4.14-2.78,4.47,2.35,1.14-.09-.83-1.65,3.6.89-2.9-2.67.54-1.73,1.02.25-1.54-2.1,1.82-.39-3.3-2.68,2.31-.46,3.73-.18.2.84-4,.72-.33,2.36ZM42.55,89.49l-.92-.2c-3.77-2.99,1.77-2.1,4.22-.79,5.4,1.2-1.14,2.64-3.3.99ZM52.99,95.02l-.6-.23-.7-.32c-3.13-2.79,6.57,2.04,1.3.55ZM53.04,92.23l-.84-.28c-3.72-2.33,4.67.77.84.28ZM51.83,88.55c-3.29-.76,1.2-1.06,2.03.18,5.67.91-.35,1.31-2.03-.18ZM51.21,89.41c2.58.35,2.6,1.53-.26.79-.5-.32-1.32-.3-1.59-.95-3.92-2.5.46-1.13,1.85.16ZM66.14,108.62c-5.07-.64-9.6-2.75-14.23-4.75-.67-.32-1.31-.72-1.95-1.09-3.18-1.76-2.78-2.13.31-.39,1.1.87,8.85,4.05,5.16,1.95-1.59-.4-10.56-5.33-4.65-3.17,4.73,2.92,10.18,4.47,15.23,6.72,4.44.58,9.13,1.76,13.5.82,3.64,1.82,7.42-.47,11.08,1.18-8.08,1.57-16.4-.15-24.45-1.27ZM68.03,106.46c5.57,2.06-3.32.68-5.16-.48-5.17-2.18,4.23.68,5.16.48ZM76.2,103.31c2.73-2.34,2.83-1.2,2.8.72-2.44,2.69-.99-1.1-2.5.36-1.39,1.11-1.05-.66-.3-1.08ZM82.62,105.52c-.13-1.54,3.01-1.79.46-.15l-.46.15ZM87.17,106.48l-.68.45c-1.3-.9,3.95-2.81.68-.45ZM91.24,104.22c-2.22,1.2-4.33-.78-6.49-.67-3.01-1.04-7.77-4.22-11-2.06-4.46,2.8,2.29-3.11-1.33-.47-3.67,4.41-2.49-2.74-6.07-.6-.21-.69-3.18-.88-.93-2.1-2.02-.12-.76-.25-.03-1.86-.87-.17-5.69-.01-7.58-1.59-2.23-2.9.38-1.72,2.71-1.3-3.73.66,1.29,2.8,3.78,1.61-1.12-.48-2.41-2.9-5.37-5.02-4.15-2.5-7.56-3.69-11.86-5.68-4.66-2.76,1.04-.97,2.65.48,4.64,2.05,2.81-2.87.12-4.15-2.56.1-3.47-2.44-5.22-2.98-.27-.01-.56-.04-.85-.09.31-.02.59.01.85.09,3.24.25,5.16-1.35,1.32-4.81-3.95-4.61,1.64,3.47-.66,2.43-1.04-1.38-.26-3.35-3.6-4.07-.04,1.28-.45,3.25-1.18.57-.93.16-2,1.18-2.76-1.58.72-3.14-3.11-3.85-3.7-5.86,3.31,2.11,4.8.44,2.46-1.86-1.61-2.81-1.83-.6-2.73-.21-3.24,3.31-.29-5.71-1.73-3.11-1.46-.04-.63,1.6-.6,3.63-4.73-1.17,1.15,2.49,2.52,4.51-2.16-2.26-1.79,1.7-3.6-.18-.61-1.66-.7-4.29-3.71-4.76,3.42-1.19-2.02-3.59-1.57-3.72,1.95-1.77,2.2-4.22,4.56-.39-2.99-.24-.1,4.92.64,3.38-.11-2.64,1.22-5.43-3.29-6.65-1.32,1.78-3.61-3.5-.96-2.38-.35-3.51,4.12-1.44,3.84-2.96,2.31-1.01-2.79-4.27-.05-5.58,2.1,1.28,7.56-2.02,3.89-2.47,2.3-.02,4.14.99,4.38-1.34,1.86.4,6.88,2,2.32-.51,1.46-.73,4.53-1.34,6.31-1.37,4.39-3.41,3.48,5.53,2.47,8.03,1.67-1.14,1.35,5.27.81,7.66.9-1.21,1.29,1.94.29,4.2.24-.35,2.12-.53.63,2.03-1.19-2.62-1.7,5.33-.94,1.76,2.1-3.37,1.55-.18,2.19,1.31.41,3.09,1.78,5.94,2.2,8.68,1.94,1.95-.83.63-.82,3.27.63-.77,3.19,1.07,3.19,3.79.21-4.3.47-.99,2.58.14,1.77,2.86,3.09,5.53,5.73,7.88,2.06,2.39-.12.72.77,2.18,2.19,3.89,7.26,6.13,11.65,7.14,1.92,2.5,4.81,5,8.72,3.86-3.31,2.04,9.32,2.6,5.05,3.75ZM96.36,104.29l-1.01-.07-.63-.1c.33-2.49,7.4-.53,10.28-.46-.87,1.84-6.27.15-8.64.63ZM115.36,104.33c-2.93-.69,1.32-.67,2.2-.8,5.62,0,.38.81-2.2.8ZM61.51,85.64c-1.48-2.33-1.13.35.24,1.78,2.19,2.6.51-1.48-.24-1.78ZM52.97,72.96l.36.6c.8-2.6-1.99-4.25-.36-.6ZM49.36,58.99v.55c1.15-2.84.2-4.39,0-.55ZM48.76,43.99c-.73,3.88-1.48,2.26-.43-.63-.25-3.72-2.51,2.27-1.51,4.03,1.65,2.62,3.3-6.46,1.94-3.4ZM46.35,32.78c3.7-.57.58-2.26-.5.57.39.89.58-.27.5-.57ZM45.96,58.52c-.74-5.39-2.34,2.49-.16,3.79.67,1.93,1.38,1.14,1.62-1.04-1.58.03.65-3.43-1.46-2.75ZM38.05,59.55c2.07,5.14-1.3-.64-1.65-2.39-.38,1.07.82,4.59,1.55,5.79,1.86,2.86,1.02-1.57,3.06,1.28-1.12-2.5.53-1.14.29-2.21-.52-1.07-5.53-6.77-3.25-2.47ZM35.3,51.86c5.54,2.29-.49-1.49-2.41-1.08.48.7,1.79.39,2.41,1.08ZM36.32,34.77c5.84-1.11-2.14-1.86-3.85.2,1.09.5,2.29-1.38,3.85-.2ZM34.31,49.44c1.04,1.02,4.56,2.84,1.72.34,1.8-.36-.23-.94-1.31-1.79-2.49-3.73.37.3-.41,1.45ZM32.39,52.48c.38.85,1.3.92,2.07,1.13,7.31,3.38-5.3-5.58-2.07-1.13ZM31.41,53.95l.82.83c5.49,1.51-5.84-5.3-.82-.83ZM30.73,54.35c-2.9-2.44.9,1.21-.28,1.16-3.06-2.23-1.81-.65-.08,1.07,1.87,2.78,3.42-1.67.36-2.23ZM28.94,36.59l.75.68c3.96.33-.6-2.58-.75-.68ZM28.5,39.11c4.17,2.85-.72-4.69-1.84-.55.52-.13,1.34.17,1.84.55ZM26.66,38.56c.52-.13,1.34.17,1.84.55,4.17,2.85-.72-4.69-1.84-.55ZM28.94,36.59l.75.68c3.96.33-.6-2.58-.75-.68ZM32.47,34.97c1.09.5,2.29-1.38,3.85-.2,5.84-1.11-2.14-1.86-3.85.2ZM45.85,33.35c.39.89.58-.27.5-.57,3.7-.57.58-2.26-.5.57ZM30.73,54.35c-2.9-2.44.9,1.21-.28,1.16-3.06-2.23-1.81-.65-.08,1.07,1.87,2.78,3.42-1.67.36-2.23ZM31.41,53.95l.82.83c5.49,1.51-5.84-5.3-.82-.83ZM32.39,52.48c.38.85,1.3.92,2.07,1.13,7.31,3.38-5.3-5.58-2.07-1.13ZM36.03,49.78c1.8-.36-.23-.94-1.31-1.79-2.49-3.73.37.3-.41,1.45,1.04,1.02,4.56,2.84,1.72.34ZM32.89,50.78c.48.7,1.79.39,2.41,1.08,5.54,2.29-.49-1.49-2.41-1.08ZM41.3,62.02c-.52-1.07-5.53-6.77-3.25-2.47,2.07,5.14-1.3-.64-1.65-2.39-.38,1.07.82,4.59,1.55,5.79,1.86,2.86,1.02-1.57,3.06,1.28-1.12-2.5.53-1.14.29-2.21ZM45.96,58.52c-.74-5.39-2.34,2.49-.16,3.79.67,1.93,1.38,1.14,1.62-1.04-1.58.03.65-3.43-1.46-2.75ZM48.76,43.99c-.73,3.88-1.48,2.26-.43-.63-.25-3.72-2.51,2.27-1.51,4.03,1.65,2.62,3.3-6.46,1.94-3.4ZM49.36,58.99v.55c1.15-2.84.2-4.39,0-.55ZM52.97,72.96l.36.6c.8-2.6-1.99-4.25-.36-.6ZM61.51,85.64c-1.48-2.33-1.13.35.24,1.78,2.19,2.6.51-1.48-.24-1.78ZM61.51,85.64c-1.48-2.33-1.13.35.24,1.78,2.19,2.6.51-1.48-.24-1.78ZM52.97,72.96l.36.6c.8-2.6-1.99-4.25-.36-.6ZM49.36,58.99v.55c1.15-2.84.2-4.39,0-.55ZM48.76,43.99c-.73,3.88-1.48,2.26-.43-.63-.25-3.72-2.51,2.27-1.51,4.03,1.65,2.62,3.3-6.46,1.94-3.4ZM45.85,33.35c.39.89.58-.27.5-.57,3.7-.57.58-2.26-.5.57ZM45.96,58.52c-.74-5.39-2.34,2.49-.16,3.79.67,1.93,1.38,1.14,1.62-1.04-1.58.03.65-3.43-1.46-2.75ZM41.3,62.02c-.52-1.07-5.53-6.77-3.25-2.47,2.07,5.14-1.3-.64-1.65-2.39-.38,1.07.82,4.59,1.55,5.79,1.86,2.86,1.02-1.57,3.06,1.28-1.12-2.5.53-1.14.29-2.21ZM32.89,50.78c.48.7,1.79.39,2.41,1.08,5.54,2.29-.49-1.49-2.41-1.08ZM32.47,34.97c1.09.5,2.29-1.38,3.85-.2,5.84-1.11-2.14-1.86-3.85.2ZM36.03,49.78c1.8-.36-.23-.94-1.31-1.79-2.49-3.73.37.3-.41,1.45,1.04,1.02,4.56,2.84,1.72.34ZM32.39,52.48c.38.85,1.3.92,2.07,1.13,7.31,3.38-5.3-5.58-2.07-1.13ZM31.41,53.95l.82.83c5.49,1.51-5.84-5.3-.82-.83ZM30.73,54.35c-2.9-2.44.9,1.21-.28,1.16-3.06-2.23-1.81-.65-.08,1.07,1.87,2.78,3.42-1.67.36-2.23ZM28.94,36.59l.75.68c3.96.33-.6-2.58-.75-.68ZM26.66,38.56c.52-.13,1.34.17,1.84.55,4.17,2.85-.72-4.69-1.84-.55ZM26.66,38.56c.52-.13,1.34.17,1.84.55,4.17,2.85-.72-4.69-1.84-.55ZM28.94,36.59l.75.68c3.96.33-.6-2.58-.75-.68ZM32.47,34.97c1.09.5,2.29-1.38,3.85-.2,5.84-1.11-2.14-1.86-3.85.2ZM45.85,33.35c.39.89.58-.27.5-.57,3.7-.57.58-2.26-.5.57ZM30.73,54.35c-2.9-2.44.9,1.21-.28,1.16-3.06-2.23-1.81-.65-.08,1.07,1.87,2.78,3.42-1.67.36-2.23ZM31.41,53.95l.82.83c5.49,1.51-5.84-5.3-.82-.83ZM32.39,52.48c.38.85,1.3.92,2.07,1.13,7.31,3.38-5.3-5.58-2.07-1.13ZM36.03,49.78c1.8-.36-.23-.94-1.31-1.79-2.49-3.73.37.3-.41,1.45,1.04,1.02,4.56,2.84,1.72.34ZM32.89,50.78c.48.7,1.79.39,2.41,1.08,5.54,2.29-.49-1.49-2.41-1.08ZM41.3,62.02c-.52-1.07-5.53-6.77-3.25-2.47,2.07,5.14-1.3-.64-1.65-2.39-.38,1.07.82,4.59,1.55,5.79,1.86,2.86,1.02-1.57,3.06,1.28-1.12-2.5.53-1.14.29-2.21ZM45.96,58.52c-.74-5.39-2.34,2.49-.16,3.79.67,1.93,1.38,1.14,1.62-1.04-1.58.03.65-3.43-1.46-2.75ZM48.76,43.99c-.73,3.88-1.48,2.26-.43-.63-.25-3.72-2.51,2.27-1.51,4.03,1.65,2.62,3.3-6.46,1.94-3.4ZM49.36,58.99v.55c1.15-2.84.2-4.39,0-.55ZM52.97,72.96l.36.6c.8-2.6-1.99-4.25-.36-.6ZM61.51,85.64c-1.48-2.33-1.13.35.24,1.78,2.19,2.6.51-1.48-.24-1.78ZM61.51,85.64c-1.48-2.33-1.13.35.24,1.78,2.19,2.6.51-1.48-.24-1.78ZM52.97,72.96l.36.6c.8-2.6-1.99-4.25-.36-.6ZM49.36,58.99v.55c1.15-2.84.2-4.39,0-.55ZM48.76,43.99c-.73,3.88-1.48,2.26-.43-.63-.25-3.72-2.51,2.27-1.51,4.03,1.65,2.62,3.3-6.46,1.94-3.4ZM45.85,33.35c.39.89.58-.27.5-.57,3.7-.57.58-2.26-.5.57ZM45.96,58.52c-.74-5.39-2.34,2.49-.16,3.79.67,1.93,1.38,1.14,1.62-1.04-1.58.03.65-3.43-1.46-2.75ZM41.3,62.02c-.52-1.07-5.53-6.77-3.25-2.47,2.07,5.14-1.3-.64-1.65-2.39-.38,1.07.82,4.59,1.55,5.79,1.86,2.86,1.02-1.57,3.06,1.28-1.12-2.5.53-1.14.29-2.21ZM32.89,50.78c.48.7,1.79.39,2.41,1.08,5.54,2.29-.49-1.49-2.41-1.08ZM32.47,34.97c1.09.5,2.29-1.38,3.85-.2,5.84-1.11-2.14-1.86-3.85.2ZM36.03,49.78c1.8-.36-.23-.94-1.31-1.79-2.49-3.73.37.3-.41,1.45,1.04,1.02,4.56,2.84,1.72.34ZM32.39,52.48c.38.85,1.3.92,2.07,1.13,7.31,3.38-5.3-5.58-2.07-1.13ZM31.41,53.95l.82.83c5.49,1.51-5.84-5.3-.82-.83ZM30.73,54.35c-2.9-2.44.9,1.21-.28,1.16-3.06-2.23-1.81-.65-.08,1.07,1.87,2.78,3.42-1.67.36-2.23ZM28.94,36.59l.75.68c3.96.33-.6-2.58-.75-.68ZM26.66,38.56c.52-.13,1.34.17,1.84.55,4.17,2.85-.72-4.69-1.84-.55ZM26.66,38.56c.52-.13,1.34.17,1.84.55,4.17,2.85-.72-4.69-1.84-.55ZM28.94,36.59l.75.68c3.96.33-.6-2.58-.75-.68ZM32.47,34.97c1.09.5,2.29-1.38,3.85-.2,5.84-1.11-2.14-1.86-3.85.2ZM45.85,33.35c.39.89.58-.27.5-.57,3.7-.57.58-2.26-.5.57ZM30.73,54.35c-2.9-2.44.9,1.21-.28,1.16-3.06-2.23-1.81-.65-.08,1.07,1.87,2.78,3.42-1.67.36-2.23ZM31.41,53.95l.82.83c5.49,1.51-5.84-5.3-.82-.83ZM32.39,52.48c.38.85,1.3.92,2.07,1.13,7.31,3.38-5.3-5.58-2.07-1.13ZM36.03,49.78c1.8-.36-.23-.94-1.31-1.79-2.49-3.73.37.3-.41,1.45,1.04,1.02,4.56,2.84,1.72.34ZM32.89,50.78c.48.7,1.79.39,2.41,1.08,5.54,2.29-.49-1.49-2.41-1.08ZM41.3,62.02c-.52-1.07-5.53-6.77-3.25-2.47,2.07,5.14-1.3-.64-1.65-2.39-.38,1.07.82,4.59,1.55,5.79,1.86,2.86,1.02-1.57,3.06,1.28-1.12-2.5.53-1.14.29-2.21ZM45.96,58.52c-.74-5.39-2.34,2.49-.16,3.79.67,1.93,1.38,1.14,1.62-1.04-1.58.03.65-3.43-1.46-2.75ZM48.76,43.99c-.73,3.88-1.48,2.26-.43-.63-.25-3.72-2.51,2.27-1.51,4.03,1.65,2.62,3.3-6.46,1.94-3.4ZM49.36,58.99v.55c1.15-2.84.2-4.39,0-.55ZM52.97,72.96l.36.6c.8-2.6-1.99-4.25-.36-.6ZM61.51,85.64c-1.48-2.33-1.13.35.24,1.78,2.19,2.6.51-1.48-.24-1.78ZM61.51,85.64c-1.48-2.33-1.13.35.24,1.78,2.19,2.6.51-1.48-.24-1.78ZM52.97,72.96l.36.6c.8-2.6-1.99-4.25-.36-.6ZM49.36,58.99v.55c1.15-2.84.2-4.39,0-.55ZM48.76,43.99c-.73,3.88-1.48,2.26-.43-.63-.25-3.72-2.51,2.27-1.51,4.03,1.65,2.62,3.3-6.46,1.94-3.4ZM45.85,33.35c.39.89.58-.27.5-.57,3.7-.57.58-2.26-.5.57ZM45.96,58.52c-.74-5.39-2.34,2.49-.16,3.79.67,1.93,1.38,1.14,1.62-1.04-1.58.03.65-3.43-1.46-2.75ZM41.3,62.02c-.52-1.07-5.53-6.77-3.25-2.47,2.07,5.14-1.3-.64-1.65-2.39-.38,1.07.82,4.59,1.55,5.79,1.86,2.86,1.02-1.57,3.06,1.28-1.12-2.5.53-1.14.29-2.21ZM32.89,50.78c.48.7,1.79.39,2.41,1.08,5.54,2.29-.49-1.49-2.41-1.08ZM32.47,34.97c1.09.5,2.29-1.38,3.85-.2,5.84-1.11-2.14-1.86-3.85.2ZM36.03,49.78c1.8-.36-.23-.94-1.31-1.79-2.49-3.73.37.3-.41,1.45,1.04,1.02,4.56,2.84,1.72.34ZM32.39,52.48c.38.85,1.3.92,2.07,1.13,7.31,3.38-5.3-5.58-2.07-1.13ZM31.41,53.95l.82.83c5.49,1.51-5.84-5.3-.82-.83ZM30.73,54.35c-2.9-2.44.9,1.21-.28,1.16-3.06-2.23-1.81-.65-.08,1.07,1.87,2.78,3.42-1.67.36-2.23ZM28.94,36.59l.75.68c3.96.33-.6-2.58-.75-.68ZM26.66,38.56c.52-.13,1.34.17,1.84.55,4.17,2.85-.72-4.69-1.84-.55ZM26.66,38.56c.52-.13,1.34.17,1.84.55,4.17,2.85-.72-4.69-1.84-.55ZM28.94,36.59l.75.68c3.96.33-.6-2.58-.75-.68ZM32.47,34.97c1.09.5,2.29-1.38,3.85-.2,5.84-1.11-2.14-1.86-3.85.2ZM45.85,33.35c.39.89.58-.27.5-.57,3.7-.57.58-2.26-.5.57ZM30.73,54.35c-2.9-2.44.9,1.21-.28,1.16-3.06-2.23-1.81-.65-.08,1.07,1.87,2.78,3.42-1.67.36-2.23ZM31.41,53.95l.82.83c5.49,1.51-5.84-5.3-.82-.83ZM32.39,52.48c.38.85,1.3.92,2.07,1.13,7.31,3.38-5.3-5.58-2.07-1.13ZM36.03,49.78c1.8-.36-.23-.94-1.31-1.79-2.49-3.73.37.3-.41,1.45,1.04,1.02,4.56,2.84,1.72.34ZM32.89,50.78c.48.7,1.79.39,2.41,1.08,5.54,2.29-.49-1.49-2.41-1.08ZM41.3,62.02c-.52-1.07-5.53-6.77-3.25-2.47,2.07,5.14-1.3-.64-1.65-2.39-.38,1.07.82,4.59,1.55,5.79,1.86,2.86,1.02-1.57,3.06,1.28-1.12-2.5.53-1.14.29-2.21ZM45.96,58.52c-.74-5.39-2.34,2.49-.16,3.79.67,1.93,1.38,1.14,1.62-1.04-1.58.03.65-3.43-1.46-2.75ZM48.76,43.99c-.73,3.88-1.48,2.26-.43-.63-.25-3.72-2.51,2.27-1.51,4.03,1.65,2.62,3.3-6.46,1.94-3.4ZM49.36,58.99v.55c1.15-2.84.2-4.39,0-.55ZM52.97,72.96l.36.6c.8-2.6-1.99-4.25-.36-.6ZM61.51,85.64c-1.48-2.33-1.13.35.24,1.78,2.19,2.6.51-1.48-.24-1.78ZM61.51,85.64c-1.48-2.33-1.13.35.24,1.78,2.19,2.6.51-1.48-.24-1.78ZM52.97,72.96l.36.6c.8-2.6-1.99-4.25-.36-.6ZM49.36,58.99v.55c1.15-2.84.2-4.39,0-.55ZM48.76,43.99c-.73,3.88-1.48,2.26-.43-.63-.25-3.72-2.51,2.27-1.51,4.03,1.65,2.62,3.3-6.46,1.94-3.4ZM45.85,33.35c.39.89.58-.27.5-.57,3.7-.57.58-2.26-.5.57ZM45.96,58.52c-.74-5.39-2.34,2.49-.16,3.79.67,1.93,1.38,1.14,1.62-1.04-1.58.03.65-3.43-1.46-2.75ZM41.3,62.02c-.52-1.07-5.53-6.77-3.25-2.47,2.07,5.14-1.3-.64-1.65-2.39-.38,1.07.82,4.59,1.55,5.79,1.86,2.86,1.02-1.57,3.06,1.28-1.12-2.5.53-1.14.29-2.21ZM32.89,50.78c.48.7,1.79.39,2.41,1.08,5.54,2.29-.49-1.49-2.41-1.08ZM32.47,34.97c1.09.5,2.29-1.38,3.85-.2,5.84-1.11-2.14-1.86-3.85.2ZM36.03,49.78c1.8-.36-.23-.94-1.31-1.79-2.49-3.73.37.3-.41,1.45,1.04,1.02,4.56,2.84,1.72.34ZM32.39,52.48c.38.85,1.3.92,2.07,1.13,7.31,3.38-5.3-5.58-2.07-1.13ZM31.41,53.95l.82.83c5.49,1.51-5.84-5.3-.82-.83ZM30.73,54.35c-2.9-2.44.9,1.21-.28,1.16-3.06-2.23-1.81-.65-.08,1.07,1.87,2.78,3.42-1.67.36-2.23ZM28.94,36.59l.75.68c3.96.33-.6-2.58-.75-.68ZM26.66,38.56c.52-.13,1.34.17,1.84.55,4.17,2.85-.72-4.69-1.84-.55ZM26.66,38.56c.52-.13,1.34.17,1.84.55,4.17,2.85-.72-4.69-1.84-.55ZM28.94,36.59l.75.68c3.96.33-.6-2.58-.75-.68ZM32.47,34.97c1.09.5,2.29-1.38,3.85-.2,5.84-1.11-2.14-1.86-3.85.2ZM45.85,33.35c.39.89.58-.27.5-.57,3.7-.57.58-2.26-.5.57ZM30.73,54.35c-2.9-2.44.9,1.21-.28,1.16-3.06-2.23-1.81-.65-.08,1.07,1.87,2.78,3.42-1.67.36-2.23ZM31.41,53.95l.82.83c5.49,1.51-5.84-5.3-.82-.83ZM32.39,52.48c.38.85,1.3.92,2.07,1.13,7.31,3.38-5.3-5.58-2.07-1.13ZM36.03,49.78c1.8-.36-.23-.94-1.31-1.79-2.49-3.73.37.3-.41,1.45,1.04,1.02,4.56,2.84,1.72.34ZM32.89,50.78c.48.7,1.79.39,2.41,1.08,5.54,2.29-.49-1.49-2.41-1.08ZM41.3,62.02c-.52-1.07-5.53-6.77-3.25-2.47,2.07,5.14-1.3-.64-1.65-2.39-.38,1.07.82,4.59,1.55,5.79,1.86,2.86,1.02-1.57,3.06,1.28-1.12-2.5.53-1.14.29-2.21ZM45.96,58.52c-.74-5.39-2.34,2.49-.16,3.79.67,1.93,1.38,1.14,1.62-1.04-1.58.03.65-3.43-1.46-2.75ZM48.76,43.99c-.73,3.88-1.48,2.26-.43-.63-.25-3.72-2.51,2.27-1.51,4.03,1.65,2.62,3.3-6.46,1.94-3.4ZM49.36,58.99v.55c1.15-2.84.2-4.39,0-.55ZM52.97,72.96l.36.6c.8-2.6-1.99-4.25-.36-.6ZM61.51,85.64c-1.48-2.33-1.13.35.24,1.78,2.19,2.6.51-1.48-.24-1.78ZM61.51,85.64c-1.48-2.33-1.13.35.24,1.78,2.19,2.6.51-1.48-.24-1.78ZM52.97,72.96l.36.6c.8-2.6-1.99-4.25-.36-.6ZM49.36,58.99v.55c1.15-2.84.2-4.39,0-.55ZM48.76,43.99c-.73,3.88-1.48,2.26-.43-.63-.25-3.72-2.51,2.27-1.51,4.03,1.65,2.62,3.3-6.46,1.94-3.4ZM45.85,33.35c.39.89.58-.27.5-.57,3.7-.57.58-2.26-.5.57ZM45.96,58.52c-.74-5.39-2.34,2.49-.16,3.79.67,1.93,1.38,1.14,1.62-1.04-1.58.03.65-3.43-1.46-2.75ZM41.3,62.02c-.52-1.07-5.53-6.77-3.25-2.47,2.07,5.14-1.3-.64-1.65-2.39-.38,1.07.82,4.59,1.55,5.79,1.86,2.86,1.02-1.57,3.06,1.28-1.12-2.5.53-1.14.29-2.21ZM32.89,50.78c.48.7,1.79.39,2.41,1.08,5.54,2.29-.49-1.49-2.41-1.08ZM32.47,34.97c1.09.5,2.29-1.38,3.85-.2,5.84-1.11-2.14-1.86-3.85.2ZM36.03,49.78c1.8-.36-.23-.94-1.31-1.79-2.49-3.73.37.3-.41,1.45,1.04,1.02,4.56,2.84,1.72.34ZM32.39,52.48c.38.85,1.3.92,2.07,1.13,7.31,3.38-5.3-5.58-2.07-1.13ZM31.41,53.95l.82.83c5.49,1.51-5.84-5.3-.82-.83ZM30.73,54.35c-2.9-2.44.9,1.21-.28,1.16-3.06-2.23-1.81-.65-.08,1.07,1.87,2.78,3.42-1.67.36-2.23ZM28.94,36.59l.75.68c3.96.33-.6-2.58-.75-.68ZM26.66,38.56c.52-.13,1.34.17,1.84.55,4.17,2.85-.72-4.69-1.84-.55ZM26.66,38.56c.52-.13,1.34.17,1.84.55,4.17,2.85-.72-4.69-1.84-.55ZM28.94,36.59l.75.68c3.96.33-.6-2.58-.75-.68ZM32.47,34.97c1.09.5,2.29-1.38,3.85-.2,5.84-1.11-2.14-1.86-3.85.2ZM45.85,33.35c.39.89.58-.27.5-.57,3.7-.57.58-2.26-.5.57ZM30.73,54.35c-2.9-2.44.9,1.21-.28,1.16-3.06-2.23-1.81-.65-.08,1.07,1.87,2.78,3.42-1.67.36-2.23ZM31.41,53.95l.82.83c5.49,1.51-5.84-5.3-.82-.83ZM32.39,52.48c.38.85,1.3.92,2.07,1.13,7.31,3.38-5.3-5.58-2.07-1.13ZM36.03,49.78c1.8-.36-.23-.94-1.31-1.79-2.49-3.73.37.3-.41,1.45,1.04,1.02,4.56,2.84,1.72.34ZM32.89,50.78c.48.7,1.79.39,2.41,1.08,5.54,2.29-.49-1.49-2.41-1.08ZM41.3,62.02c-.52-1.07-5.53-6.77-3.25-2.47,2.07,5.14-1.3-.64-1.65-2.39-.38,1.07.82,4.59,1.55,5.79,1.86,2.86,1.02-1.57,3.06,1.28-1.12-2.5.53-1.14.29-2.21ZM45.96,58.52c-.74-5.39-2.34,2.49-.16,3.79.67,1.93,1.38,1.14,1.62-1.04-1.58.03.65-3.43-1.46-2.75ZM48.76,43.99c-.73,3.88-1.48,2.26-.43-.63-.25-3.72-2.51,2.27-1.51,4.03,1.65,2.62,3.3-6.46,1.94-3.4ZM49.36,58.99v.55c1.15-2.84.2-4.39,0-.55ZM52.97,72.96l.36.6c.8-2.6-1.99-4.25-.36-.6ZM61.51,85.64c-1.48-2.33-1.13.35.24,1.78,2.19,2.6.51-1.48-.24-1.78ZM61.51,85.64c-1.48-2.33-1.13.35.24,1.78,2.19,2.6.51-1.48-.24-1.78ZM52.97,72.96l.36.6c.8-2.6-1.99-4.25-.36-.6ZM49.36,58.99v.55c1.15-2.84.2-4.39,0-.55ZM48.76,43.99c-.73,3.88-1.48,2.26-.43-.63-.25-3.72-2.51,2.27-1.51,4.03,1.65,2.62,3.3-6.46,1.94-3.4ZM45.85,33.35c.39.89.58-.27.5-.57,3.7-.57.58-2.26-.5.57ZM45.96,58.52c-.74-5.39-2.34,2.49-.16,3.79.67,1.93,1.38,1.14,1.62-1.04-1.58.03.65-3.43-1.46-2.75ZM41.3,62.02c-.52-1.07-5.53-6.77-3.25-2.47,2.07,5.14-1.3-.64-1.65-2.39-.38,1.07.82,4.59,1.55,5.79,1.86,2.86,1.02-1.57,3.06,1.28-1.12-2.5.53-1.14.29-2.21ZM32.89,50.78c.48.7,1.79.39,2.41,1.08,5.54,2.29-.49-1.49-2.41-1.08ZM32.47,34.97c1.09.5,2.29-1.38,3.85-.2,5.84-1.11-2.14-1.86-3.85.2ZM36.03,49.78c1.8-.36-.23-.94-1.31-1.79-2.49-3.73.37.3-.41,1.45,1.04,1.02,4.56,2.84,1.72.34ZM32.39,52.48c.38.85,1.3.92,2.07,1.13,7.31,3.38-5.3-5.58-2.07-1.13ZM31.41,53.95l.82.83c5.49,1.51-5.84-5.3-.82-.83ZM30.73,54.35c-2.9-2.44.9,1.21-.28,1.16-3.06-2.23-1.81-.65-.08,1.07,1.87,2.78,3.42-1.67.36-2.23ZM28.94,36.59l.75.68c3.96.33-.6-2.58-.75-.68ZM26.66,38.56c.52-.13,1.34.17,1.84.55,4.17,2.85-.72-4.69-1.84-.55ZM26.66,38.56c.52-.13,1.34.17,1.84.55,4.17,2.85-.72-4.69-1.84-.55ZM28.94,36.59l.75.68c3.96.33-.6-2.58-.75-.68ZM32.47,34.97c1.09.5,2.29-1.38,3.85-.2,5.84-1.11-2.14-1.86-3.85.2ZM45.85,33.35c.39.89.58-.27.5-.57,3.7-.57.58-2.26-.5.57ZM30.73,54.35c-2.9-2.44.9,1.21-.28,1.16-3.06-2.23-1.81-.65-.08,1.07,1.87,2.78,3.42-1.67.36-2.23ZM31.41,53.95l.82.83c5.49,1.51-5.84-5.3-.82-.83ZM32.39,52.48c.38.85,1.3.92,2.07,1.13,7.31,3.38-5.3-5.58-2.07-1.13ZM36.03,49.78c1.8-.36-.23-.94-1.31-1.79-2.49-3.73.37.3-.41,1.45,1.04,1.02,4.56,2.84,1.72.34ZM32.89,50.78c.48.7,1.79.39,2.41,1.08,5.54,2.29-.49-1.49-2.41-1.08ZM41.3,62.02c-.52-1.07-5.53-6.77-3.25-2.47,2.07,5.14-1.3-.64-1.65-2.39-.38,1.07.82,4.59,1.55,5.79,1.86,2.86,1.02-1.57,3.06,1.28-1.12-2.5.53-1.14.29-2.21ZM45.96,58.52c-.74-5.39-2.34,2.49-.16,3.79.67,1.93,1.38,1.14,1.62-1.04-1.58.03.65-3.43-1.46-2.75ZM48.76,43.99c-.73,3.88-1.48,2.26-.43-.63-.25-3.72-2.51,2.27-1.51,4.03,1.65,2.62,3.3-6.46,1.94-3.4ZM49.36,58.99v.55c1.15-2.84.2-4.39,0-.55ZM52.97,72.96l.36.6c.8-2.6-1.99-4.25-.36-.6ZM61.51,85.64c-1.48-2.33-1.13.35.24,1.78,2.19,2.6.51-1.48-.24-1.78ZM61.51,85.64c-1.48-2.33-1.13.35.24,1.78,2.19,2.6.51-1.48-.24-1.78ZM52.97,72.96l.36.6c.8-2.6-1.99-4.25-.36-.6ZM49.36,58.99v.55c1.15-2.84.2-4.39,0-.55ZM48.76,43.99c-.73,3.88-1.48,2.26-.43-.63-.25-3.72-2.51,2.27-1.51,4.03,1.65,2.62,3.3-6.46,1.94-3.4ZM45.85,33.35c.39.89.58-.27.5-.57,3.7-.57.58-2.26-.5.57ZM45.96,58.52c-.74-5.39-2.34,2.49-.16,3.79.67,1.93,1.38,1.14,1.62-1.04-1.58.03.65-3.43-1.46-2.75ZM41.3,62.02c-.52-1.07-5.53-6.77-3.25-2.47,2.07,5.14-1.3-.64-1.65-2.39-.38,1.07.82,4.59,1.55,5.79,1.86,2.86,1.02-1.57,3.06,1.28-1.12-2.5.53-1.14.29-2.21ZM32.89,50.78c.48.7,1.79.39,2.41,1.08,5.54,2.29-.49-1.49-2.41-1.08ZM32.47,34.97c1.09.5,2.29-1.38,3.85-.2,5.84-1.11-2.14-1.86-3.85.2ZM36.03,49.78c1.8-.36-.23-.94-1.31-1.79-2.49-3.73.37.3-.41,1.45,1.04,1.02,4.56,2.84,1.72.34ZM32.39,52.48c.38.85,1.3.92,2.07,1.13,7.31,3.38-5.3-5.58-2.07-1.13ZM31.41,53.95l.82.83c5.49,1.51-5.84-5.3-.82-.83ZM30.73,54.35c-2.9-2.44.9,1.21-.28,1.16-3.06-2.23-1.81-.65-.08,1.07,1.87,2.78,3.42-1.67.36-2.23ZM28.94,36.59l.75.68c3.96.33-.6-2.58-.75-.68ZM26.66,38.56c.52-.13,1.34.17,1.84.55,4.17,2.85-.72-4.69-1.84-.55ZM26.66,38.56c.52-.13,1.34.17,1.84.55,4.17,2.85-.72-4.69-1.84-.55ZM28.94,36.59l.75.68c3.96.33-.6-2.58-.75-.68ZM32.47,34.97c1.09.5,2.29-1.38,3.85-.2,5.84-1.11-2.14-1.86-3.85.2ZM45.85,33.35c.39.89.58-.27.5-.57,3.7-.57.58-2.26-.5.57ZM30.73,54.35c-2.9-2.44.9,1.21-.28,1.16-3.06-2.23-1.81-.65-.08,1.07,1.87,2.78,3.42-1.67.36-2.23ZM31.41,53.95l.82.83c5.49,1.51-5.84-5.3-.82-.83ZM32.39,52.48c.38.85,1.3.92,2.07,1.13,7.31,3.38-5.3-5.58-2.07-1.13ZM36.03,49.78c1.8-.36-.23-.94-1.31-1.79-2.49-3.73.37.3-.41,1.45,1.04,1.02,4.56,2.84,1.72.34ZM32.89,50.78c.48.7,1.79.39,2.41,1.08,5.54,2.29-.49-1.49-2.41-1.08ZM41.3,62.02c-.52-1.07-5.53-6.77-3.25-2.47,2.07,5.14-1.3-.64-1.65-2.39-.38,1.07.82,4.59,1.55,5.79,1.86,2.86,1.02-1.57,3.06,1.28-1.12-2.5.53-1.14.29-2.21ZM45.96,58.52c-.74-5.39-2.34,2.49-.16,3.79.67,1.93,1.38,1.14,1.62-1.04-1.58.03.65-3.43-1.46-2.75ZM48.76,43.99c-.73,3.88-1.48,2.26-.43-.63-.25-3.72-2.51,2.27-1.51,4.03,1.65,2.62,3.3-6.46,1.94-3.4ZM49.36,58.99v.55c1.15-2.84.2-4.39,0-.55ZM52.97,72.96l.36.6c.8-2.6-1.99-4.25-.36-.6ZM61.51,85.64c-1.48-2.33-1.13.35.24,1.78,2.19,2.6.51-1.48-.24-1.78ZM61.51,85.64c-1.48-2.33-1.13.35.24,1.78,2.19,2.6.51-1.48-.24-1.78ZM52.97,72.96l.36.6c.8-2.6-1.99-4.25-.36-.6ZM49.36,58.99v.55c1.15-2.84.2-4.39,0-.55ZM48.76,43.99c-.73,3.88-1.48,2.26-.43-.63-.25-3.72-2.51,2.27-1.51,4.03,1.65,2.62,3.3-6.46,1.94-3.4ZM45.85,33.35c.39.89.58-.27.5-.57,3.7-.57.58-2.26-.5.57ZM45.96,58.52c-.74-5.39-2.34,2.49-.16,3.79.67,1.93,1.38,1.14,1.62-1.04-1.58.03.65-3.43-1.46-2.75ZM41.3,62.02c-.52-1.07-5.53-6.77-3.25-2.47,2.07,5.14-1.3-.64-1.65-2.39-.38,1.07.82,4.59,1.55,5.79,1.86,2.86,1.02-1.57,3.06,1.28-1.12-2.5.53-1.14.29-2.21ZM32.89,50.78c.48.7,1.79.39,2.41,1.08,5.54,2.29-.49-1.49-2.41-1.08ZM32.47,34.97c1.09.5,2.29-1.38,3.85-.2,5.84-1.11-2.14-1.86-3.85.2ZM36.03,49.78c1.8-.36-.23-.94-1.31-1.79-2.49-3.73.37.3-.41,1.45,1.04,1.02,4.56,2.84,1.72.34ZM32.39,52.48c.38.85,1.3.92,2.07,1.13,7.31,3.38-5.3-5.58-2.07-1.13ZM31.41,53.95l.82.83c5.49,1.51-5.84-5.3-.82-.83ZM30.73,54.35c-2.9-2.44.9,1.21-.28,1.16-3.06-2.23-1.81-.65-.08,1.07,1.87,2.78,3.42-1.67.36-2.23ZM28.94,36.59l.75.68c3.96.33-.6-2.58-.75-.68ZM26.66,38.56c.52-.13,1.34.17,1.84.55,4.17,2.85-.72-4.69-1.84-.55ZM26.66,38.56c.52-.13,1.34.17,1.84.55,4.17,2.85-.72-4.69-1.84-.55ZM28.94,36.59l.75.68c3.96.33-.6-2.58-.75-.68ZM32.47,34.97c1.09.5,2.29-1.38,3.85-.2,5.84-1.11-2.14-1.86-3.85.2ZM45.85,33.35c.39.89.58-.27.5-.57,3.7-.57.58-2.26-.5.57ZM30.73,54.35c-2.9-2.44.9,1.21-.28,1.16-3.06-2.23-1.81-.65-.08,1.07,1.87,2.78,3.42-1.67.36-2.23ZM31.41,53.95l.82.83c5.49,1.51-5.84-5.3-.82-.83ZM32.39,52.48c.38.85,1.3.92,2.07,1.13,7.31,3.38-5.3-5.58-2.07-1.13ZM36.03,49.78c1.8-.36-.23-.94-1.31-1.79-2.49-3.73.37.3-.41,1.45,1.04,1.02,4.56,2.84,1.72.34ZM32.89,50.78c.48.7,1.79.39,2.41,1.08,5.54,2.29-.49-1.49-2.41-1.08ZM41.3,62.02c-.52-1.07-5.53-6.77-3.25-2.47,2.07,5.14-1.3-.64-1.65-2.39-.38,1.07.82,4.59,1.55,5.79,1.86,2.86,1.02-1.57,3.06,1.28-1.12-2.5.53-1.14.29-2.21ZM45.96,58.52c-.74-5.39-2.34,2.49-.16,3.79.67,1.93,1.38,1.14,1.62-1.04-1.58.03.65-3.43-1.46-2.75ZM48.76,43.99c-.73,3.88-1.48,2.26-.43-.63-.25-3.72-2.51,2.27-1.51,4.03,1.65,2.62,3.3-6.46,1.94-3.4ZM49.36,58.99v.55c1.15-2.84.2-4.39,0-.55ZM52.97,72.96l.36.6c.8-2.6-1.99-4.25-.36-.6ZM61.51,85.64c-1.48-2.33-1.13.35.24,1.78,2.19,2.6.51-1.48-.24-1.78ZM61.51,85.64c-1.48-2.33-1.13.35.24,1.78,2.19,2.6.51-1.48-.24-1.78ZM52.97,72.96l.36.6c.8-2.6-1.99-4.25-.36-.6ZM49.36,58.99v.55c1.15-2.84.2-4.39,0-.55ZM48.76,43.99c-.73,3.88-1.48,2.26-.43-.63-.25-3.72-2.51,2.27-1.51,4.03,1.65,2.62,3.3-6.46,1.94-3.4ZM45.85,33.35c.39.89.58-.27.5-.57,3.7-.57.58-2.26-.5.57ZM45.96,58.52c-.74-5.39-2.34,2.49-.16,3.79.67,1.93,1.38,1.14,1.62-1.04-1.58.03.65-3.43-1.46-2.75ZM41.3,62.02c-.52-1.07-5.53-6.77-3.25-2.47,2.07,5.14-1.3-.64-1.65-2.39-.38,1.07.82,4.59,1.55,5.79,1.86,2.86,1.02-1.57,3.06,1.28-1.12-2.5.53-1.14.29-2.21ZM32.89,50.78c.48.7,1.79.39,2.41,1.08,5.54,2.29-.49-1.49-2.41-1.08ZM32.47,34.97c1.09.5,2.29-1.38,3.85-.2,5.84-1.11-2.14-1.86-3.85.2ZM36.03,49.78c1.8-.36-.23-.94-1.31-1.79-2.49-3.73.37.3-.41,1.45,1.04,1.02,4.56,2.84,1.72.34ZM32.39,52.48c.38.85,1.3.92,2.07,1.13,7.31,3.38-5.3-5.58-2.07-1.13ZM31.41,53.95l.82.83c5.49,1.51-5.84-5.3-.82-.83ZM30.73,54.35c-2.9-2.44.9,1.21-.28,1.16-3.06-2.23-1.81-.65-.08,1.07,1.87,2.78,3.42-1.67.36-2.23ZM28.94,36.59l.75.68c3.96.33-.6-2.58-.75-.68ZM26.66,38.56c.52-.13,1.34.17,1.84.55,4.17,2.85-.72-4.69-1.84-.55ZM26.66,38.56c.52-.13,1.34.17,1.84.55,4.17,2.85-.72-4.69-1.84-.55ZM28.94,36.59l.75.68c3.96.33-.6-2.58-.75-.68ZM32.47,34.97c1.09.5,2.29-1.38,3.85-.2,5.84-1.11-2.14-1.86-3.85.2ZM45.85,33.35c.39.89.58-.27.5-.57,3.7-.57.58-2.26-.5.57ZM30.73,54.35c-2.9-2.44.9,1.21-.28,1.16-3.06-2.23-1.81-.65-.08,1.07,1.87,2.78,3.42-1.67.36-2.23ZM31.41,53.95l.82.83c5.49,1.51-5.84-5.3-.82-.83ZM32.39,52.48c.38.85,1.3.92,2.07,1.13,7.31,3.38-5.3-5.58-2.07-1.13ZM36.03,49.78c1.8-.36-.23-.94-1.31-1.79-2.49-3.73.37.3-.41,1.45,1.04,1.02,4.56,2.84,1.72.34ZM32.89,50.78c.48.7,1.79.39,2.41,1.08,5.54,2.29-.49-1.49-2.41-1.08ZM41.3,62.02c-.52-1.07-5.53-6.77-3.25-2.47,2.07,5.14-1.3-.64-1.65-2.39-.38,1.07.82,4.59,1.55,5.79,1.86,2.86,1.02-1.57,3.06,1.28-1.12-2.5.53-1.14.29-2.21ZM45.96,58.52c-.74-5.39-2.34,2.49-.16,3.79.67,1.93,1.38,1.14,1.62-1.04-1.58.03.65-3.43-1.46-2.75ZM48.76,43.99c-.73,3.88-1.48,2.26-.43-.63-.25-3.72-2.51,2.27-1.51,4.03,1.65,2.62,3.3-6.46,1.94-3.4ZM49.36,58.99v.55c1.15-2.84.2-4.39,0-.55ZM52.97,72.96l.36.6c.8-2.6-1.99-4.25-.36-.6ZM61.51,85.64c-1.48-2.33-1.13.35.24,1.78,2.19,2.6.51-1.48-.24-1.78ZM61.51,85.64c-1.48-2.33-1.13.35.24,1.78,2.19,2.6.51-1.48-.24-1.78ZM52.97,72.96l.36.6c.8-2.6-1.99-4.25-.36-.6ZM49.36,58.99v.55c1.15-2.84.2-4.39,0-.55ZM48.76,43.99c-.73,3.88-1.48,2.26-.43-.63-.25-3.72-2.51,2.27-1.51,4.03,1.65,2.62,3.3-6.46,1.94-3.4ZM45.85,33.35c.39.89.58-.27.5-.57,3.7-.57.58-2.26-.5.57ZM45.96,58.52c-.74-5.39-2.34,2.49-.16,3.79.67,1.93,1.38,1.14,1.62-1.04-1.58.03.65-3.43-1.46-2.75ZM41.3,62.02c-.52-1.07-5.53-6.77-3.25-2.47,2.07,5.14-1.3-.64-1.65-2.39-.38,1.07.82,4.59,1.55,5.79,1.86,2.86,1.02-1.57,3.06,1.28-1.12-2.5.53-1.14.29-2.21ZM32.89,50.78c.48.7,1.79.39,2.41,1.08,5.54,2.29-.49-1.49-2.41-1.08ZM32.47,34.97c1.09.5,2.29-1.38,3.85-.2,5.84-1.11-2.14-1.86-3.85.2ZM36.03,49.78c1.8-.36-.23-.94-1.31-1.79-2.49-3.73.37.3-.41,1.45,1.04,1.02,4.56,2.84,1.72.34ZM32.39,52.48c.38.85,1.3.92,2.07,1.13,7.31,3.38-5.3-5.58-2.07-1.13ZM31.41,53.95l.82.83c5.49,1.51-5.84-5.3-.82-.83ZM30.73,54.35c-2.9-2.44.9,1.21-.28,1.16-3.06-2.23-1.81-.65-.08,1.07,1.87,2.78,3.42-1.67.36-2.23ZM28.94,36.59l.75.68c3.96.33-.6-2.58-.75-.68ZM26.66,38.56c.52-.13,1.34.17,1.84.55,4.17,2.85-.72-4.69-1.84-.55ZM26.66,38.56c.52-.13,1.34.17,1.84.55,4.17,2.85-.72-4.69-1.84-.55ZM28.94,36.59l.75.68c3.96.33-.6-2.58-.75-.68ZM32.47,34.97c1.09.5,2.29-1.38,3.85-.2,5.84-1.11-2.14-1.86-3.85.2ZM45.85,33.35c.39.89.58-.27.5-.57,3.7-.57.58-2.26-.5.57ZM30.73,54.35c-2.9-2.44.9,1.21-.28,1.16-3.06-2.23-1.81-.65-.08,1.07,1.87,2.78,3.42-1.67.36-2.23ZM31.41,53.95l.82.83c5.49,1.51-5.84-5.3-.82-.83ZM32.39,52.48c.38.85,1.3.92,2.07,1.13,7.31,3.38-5.3-5.58-2.07-1.13ZM36.03,49.78c1.8-.36-.23-.94-1.31-1.79-2.49-3.73.37.3-.41,1.45,1.04,1.02,4.56,2.84,1.72.34ZM32.89,50.78c.48.7,1.79.39,2.41,1.08,5.54,2.29-.49-1.49-2.41-1.08ZM41.3,62.02c-.52-1.07-5.53-6.77-3.25-2.47,2.07,5.14-1.3-.64-1.65-2.39-.38,1.07.82,4.59,1.55,5.79,1.86,2.86,1.02-1.57,3.06,1.28-1.12-2.5.53-1.14.29-2.21ZM45.96,58.52c-.74-5.39-2.34,2.49-.16,3.79.67,1.93,1.38,1.14,1.62-1.04-1.58.03.65-3.43-1.46-2.75ZM48.76,43.99c-.73,3.88-1.48,2.26-.43-.63-.25-3.72-2.51,2.27-1.51,4.03,1.65,2.62,3.3-6.46,1.94-3.4ZM49.36,58.99v.55c1.15-2.84.2-4.39,0-.55ZM52.97,72.96l.36.6c.8-2.6-1.99-4.25-.36-.6ZM61.51,85.64c-1.48-2.33-1.13.35.24,1.78,2.19,2.6.51-1.48-.24-1.78ZM61.51,85.64c-1.48-2.33-1.13.35.24,1.78,2.19,2.6.51-1.48-.24-1.78ZM52.97,72.96l.36.6c.8-2.6-1.99-4.25-.36-.6ZM49.36,58.99v.55c1.15-2.84.2-4.39,0-.55ZM48.76,43.99c-.73,3.88-1.48,2.26-.43-.63-.25-3.72-2.51,2.27-1.51,4.03,1.65,2.62,3.3-6.46,1.94-3.4ZM45.85,33.35c.39.89.58-.27.5-.57,3.7-.57.58-2.26-.5.57ZM45.96,58.52c-.74-5.39-2.34,2.49-.16,3.79.67,1.93,1.38,1.14,1.62-1.04-1.58.03.65-3.43-1.46-2.75ZM41.3,62.02c-.52-1.07-5.53-6.77-3.25-2.47,2.07,5.14-1.3-.64-1.65-2.39-.38,1.07.82,4.59,1.55,5.79,1.86,2.86,1.02-1.57,3.06,1.28-1.12-2.5.53-1.14.29-2.21ZM32.89,50.78c.48.7,1.79.39,2.41,1.08,5.54,2.29-.49-1.49-2.41-1.08ZM32.47,34.97c1.09.5,2.29-1.38,3.85-.2,5.84-1.11-2.14-1.86-3.85.2ZM36.03,49.78c1.8-.36-.23-.94-1.31-1.79-2.49-3.73.37.3-.41,1.45,1.04,1.02,4.56,2.84,1.72.34ZM32.39,52.48c.38.85,1.3.92,2.07,1.13,7.31,3.38-5.3-5.58-2.07-1.13ZM31.41,53.95l.82.83c5.49,1.51-5.84-5.3-.82-.83ZM30.73,54.35c-2.9-2.44.9,1.21-.28,1.16-3.06-2.23-1.81-.65-.08,1.07,1.87,2.78,3.42-1.67.36-2.23ZM28.94,36.59l.75.68c3.96.33-.6-2.58-.75-.68ZM26.66,38.56c.52-.13,1.34.17,1.84.55,4.17,2.85-.72-4.69-1.84-.55ZM26.66,38.56c.52-.13,1.34.17,1.84.55,4.17,2.85-.72-4.69-1.84-.55ZM28.94,36.59l.75.68c3.96.33-.6-2.58-.75-.68ZM32.47,34.97c1.09.5,2.29-1.38,3.85-.2,5.84-1.11-2.14-1.86-3.85.2ZM45.85,33.35c.39.89.58-.27.5-.57,3.7-.57.58-2.26-.5.57ZM30.73,54.35c-2.9-2.44.9,1.21-.28,1.16-3.06-2.23-1.81-.65-.08,1.07,1.87,2.78,3.42-1.67.36-2.23ZM31.41,53.95l.82.83c5.49,1.51-5.84-5.3-.82-.83ZM32.39,52.48c.38.85,1.3.92,2.07,1.13,7.31,3.38-5.3-5.58-2.07-1.13ZM36.03,49.78c1.8-.36-.23-.94-1.31-1.79-2.49-3.73.37.3-.41,1.45,1.04,1.02,4.56,2.84,1.72.34ZM32.89,50.78c.48.7,1.79.39,2.41,1.08,5.54,2.29-.49-1.49-2.41-1.08ZM41.3,62.02c-.52-1.07-5.53-6.77-3.25-2.47,2.07,5.14-1.3-.64-1.65-2.39-.38,1.07.82,4.59,1.55,5.79,1.86,2.86,1.02-1.57,3.06,1.28-1.12-2.5.53-1.14.29-2.21ZM45.96,58.52c-.74-5.39-2.34,2.49-.16,3.79.67,1.93,1.38,1.14,1.62-1.04-1.58.03.65-3.43-1.46-2.75ZM48.76,43.99c-.73,3.88-1.48,2.26-.43-.63-.25-3.72-2.51,2.27-1.51,4.03,1.65,2.62,3.3-6.46,1.94-3.4ZM49.36,58.99v.55c1.15-2.84.2-4.39,0-.55ZM52.97,72.96l.36.6c.8-2.6-1.99-4.25-.36-.6ZM61.51,85.64c-1.48-2.33-1.13.35.24,1.78,2.19,2.6.51-1.48-.24-1.78ZM61.51,85.64c-1.48-2.33-1.13.35.24,1.78,2.19,2.6.51-1.48-.24-1.78ZM52.97,72.96l.36.6c.8-2.6-1.99-4.25-.36-.6ZM49.36,58.99v.55c1.15-2.84.2-4.39,0-.55ZM48.76,43.99c-.73,3.88-1.48,2.26-.43-.63-.25-3.72-2.51,2.27-1.51,4.03,1.65,2.62,3.3-6.46,1.94-3.4ZM45.85,33.35c.39.89.58-.27.5-.57,3.7-.57.58-2.26-.5.57ZM45.96,58.52c-.74-5.39-2.34,2.49-.16,3.79.67,1.93,1.38,1.14,1.62-1.04-1.58.03.65-3.43-1.46-2.75ZM41.3,62.02c-.52-1.07-5.53-6.77-3.25-2.47,2.07,5.14-1.3-.64-1.65-2.39-.38,1.07.82,4.59,1.55,5.79,1.86,2.86,1.02-1.57,3.06,1.28-1.12-2.5.53-1.14.29-2.21ZM32.89,50.78c.48.7,1.79.39,2.41,1.08,5.54,2.29-.49-1.49-2.41-1.08ZM32.47,34.97c1.09.5,2.29-1.38,3.85-.2,5.84-1.11-2.14-1.86-3.85.2ZM36.03,49.78c1.8-.36-.23-.94-1.31-1.79-2.49-3.73.37.3-.41,1.45,1.04,1.02,4.56,2.84,1.72.34ZM32.39,52.48c.38.85,1.3.92,2.07,1.13,7.31,3.38-5.3-5.58-2.07-1.13ZM31.41,53.95l.82.83c5.49,1.51-5.84-5.3-.82-.83ZM30.73,54.35c-2.9-2.44.9,1.21-.28,1.16-3.06-2.23-1.81-.65-.08,1.07,1.87,2.78,3.42-1.67.36-2.23ZM28.94,36.59l.75.68c3.96.33-.6-2.58-.75-.68ZM26.66,38.56c.52-.13,1.34.17,1.84.55,4.17,2.85-.72-4.69-1.84-.55ZM26.66,38.56c.52-.13,1.34.17,1.84.55,4.17,2.85-.72-4.69-1.84-.55ZM28.94,36.59l.75.68c3.96.33-.6-2.58-.75-.68ZM32.47,34.97c1.09.5,2.29-1.38,3.85-.2,5.84-1.11-2.14-1.86-3.85.2ZM45.85,33.35c.39.89.58-.27.5-.57,3.7-.57.58-2.26-.5.57ZM30.73,54.35c-2.9-2.44.9,1.21-.28,1.16-3.06-2.23-1.81-.65-.08,1.07,1.87,2.78,3.42-1.67.36-2.23ZM31.41,53.95l.82.83c5.49,1.51-5.84-5.3-.82-.83ZM32.39,52.48c.38.85,1.3.92,2.07,1.13,7.31,3.38-5.3-5.58-2.07-1.13ZM36.03,49.78c1.8-.36-.23-.94-1.31-1.79-2.49-3.73.37.3-.41,1.45,1.04,1.02,4.56,2.84,1.72.34ZM32.89,50.78c.48.7,1.79.39,2.41,1.08,5.54,2.29-.49-1.49-2.41-1.08ZM41.3,62.02c-.52-1.07-5.53-6.77-3.25-2.47,2.07,5.14-1.3-.64-1.65-2.39-.38,1.07.82,4.59,1.55,5.79,1.86,2.86,1.02-1.57,3.06,1.28-1.12-2.5.53-1.14.29-2.21ZM45.96,58.52c-.74-5.39-2.34,2.49-.16,3.79.67,1.93,1.38,1.14,1.62-1.04-1.58.03.65-3.43-1.46-2.75ZM48.76,43.99c-.73,3.88-1.48,2.26-.43-.63-.25-3.72-2.51,2.27-1.51,4.03,1.65,2.62,3.3-6.46,1.94-3.4ZM49.36,58.99v.55c1.15-2.84.2-4.39,0-.55ZM52.97,72.96l.36.6c.8-2.6-1.99-4.25-.36-.6ZM61.51,85.64c-1.48-2.33-1.13.35.24,1.78,2.19,2.6.51-1.48-.24-1.78ZM61.51,85.64c-1.48-2.33-1.13.35.24,1.78,2.19,2.6.51-1.48-.24-1.78ZM52.97,72.96l.36.6c.8-2.6-1.99-4.25-.36-.6ZM49.36,58.99v.55c1.15-2.84.2-4.39,0-.55ZM48.76,43.99c-.73,3.88-1.48,2.26-.43-.63-.25-3.72-2.51,2.27-1.51,4.03,1.65,2.62,3.3-6.46,1.94-3.4ZM45.85,33.35c.39.89.58-.27.5-.57,3.7-.57.58-2.26-.5.57ZM45.96,58.52c-.74-5.39-2.34,2.49-.16,3.79.67,1.93,1.38,1.14,1.62-1.04-1.58.03.65-3.43-1.46-2.75ZM41.3,62.02c-.52-1.07-5.53-6.77-3.25-2.47,2.07,5.14-1.3-.64-1.65-2.39-.38,1.07.82,4.59,1.55,5.79,1.86,2.86,1.02-1.57,3.06,1.28-1.12-2.5.53-1.14.29-2.21ZM32.89,50.78c.48.7,1.79.39,2.41,1.08,5.54,2.29-.49-1.49-2.41-1.08ZM32.47,34.97c1.09.5,2.29-1.38,3.85-.2,5.84-1.11-2.14-1.86-3.85.2ZM36.03,49.78c1.8-.36-.23-.94-1.31-1.79-2.49-3.73.37.3-.41,1.45,1.04,1.02,4.56,2.84,1.72.34ZM32.39,52.48c.38.85,1.3.92,2.07,1.13,7.31,3.38-5.3-5.58-2.07-1.13ZM31.41,53.95l.82.83c5.49,1.51-5.84-5.3-.82-.83ZM30.73,54.35c-2.9-2.44.9,1.21-.28,1.16-3.06-2.23-1.81-.65-.08,1.07,1.87,2.78,3.42-1.67.36-2.23ZM28.94,36.59l.75.68c3.96.33-.6-2.58-.75-.68ZM26.66,38.56c.52-.13,1.34.17,1.84.55,4.17,2.85-.72-4.69-1.84-.55ZM26.66,38.56c.52-.13,1.34.17,1.84.55,4.17,2.85-.72-4.69-1.84-.55ZM28.94,36.59l.75.68c3.96.33-.6-2.58-.75-.68ZM32.47,34.97c1.09.5,2.29-1.38,3.85-.2,5.84-1.11-2.14-1.86-3.85.2ZM45.85,33.35c.39.89.58-.27.5-.57,3.7-.57.58-2.26-.5.57ZM30.73,54.35c-2.9-2.44.9,1.21-.28,1.16-3.06-2.23-1.81-.65-.08,1.07,1.87,2.78,3.42-1.67.36-2.23ZM31.41,53.95l.82.83c5.49,1.51-5.84-5.3-.82-.83ZM32.39,52.48c.38.85,1.3.92,2.07,1.13,7.31,3.38-5.3-5.58-2.07-1.13ZM36.03,49.78c1.8-.36-.23-.94-1.31-1.79-2.49-3.73.37.3-.41,1.45,1.04,1.02,4.56,2.84,1.72.34ZM32.89,50.78c.48.7,1.79.39,2.41,1.08,5.54,2.29-.49-1.49-2.41-1.08ZM41.3,62.02c-.52-1.07-5.53-6.77-3.25-2.47,2.07,5.14-1.3-.64-1.65-2.39-.38,1.07.82,4.59,1.55,5.79,1.86,2.86,1.02-1.57,3.06,1.28-1.12-2.5.53-1.14.29-2.21ZM45.96,58.52c-.74-5.39-2.34,2.49-.16,3.79.67,1.93,1.38,1.14,1.62-1.04-1.58.03.65-3.43-1.46-2.75ZM48.76,43.99c-.73,3.88-1.48,2.26-.43-.63-.25-3.72-2.51,2.27-1.51,4.03,1.65,2.62,3.3-6.46,1.94-3.4ZM49.36,58.99v.55c1.15-2.84.2-4.39,0-.55ZM52.97,72.96l.36.6c.8-2.6-1.99-4.25-.36-.6ZM61.51,85.64c-1.48-2.33-1.13.35.24,1.78,2.19,2.6.51-1.48-.24-1.78ZM61.51,85.64c-1.48-2.33-1.13.35.24,1.78,2.19,2.6.51-1.48-.24-1.78ZM52.97,72.96l.36.6c.8-2.6-1.99-4.25-.36-.6ZM49.36,58.99v.55c1.15-2.84.2-4.39,0-.55ZM48.76,43.99c-.73,3.88-1.48,2.26-.43-.63-.25-3.72-2.51,2.27-1.51,4.03,1.65,2.62,3.3-6.46,1.94-3.4ZM45.85,33.35c.39.89.58-.27.5-.57,3.7-.57.58-2.26-.5.57ZM45.96,58.52c-.74-5.39-2.34,2.49-.16,3.79.67,1.93,1.38,1.14,1.62-1.04-1.58.03.65-3.43-1.46-2.75ZM41.3,62.02c-.52-1.07-5.53-6.77-3.25-2.47,2.07,5.14-1.3-.64-1.65-2.39-.38,1.07.82,4.59,1.55,5.79,1.86,2.86,1.02-1.57,3.06,1.28-1.12-2.5.53-1.14.29-2.21ZM32.89,50.78c.48.7,1.79.39,2.41,1.08,5.54,2.29-.49-1.49-2.41-1.08ZM32.47,34.97c1.09.5,2.29-1.38,3.85-.2,5.84-1.11-2.14-1.86-3.85.2ZM36.03,49.78c1.8-.36-.23-.94-1.31-1.79-2.49-3.73.37.3-.41,1.45,1.04,1.02,4.56,2.84,1.72.34ZM32.39,52.48c.38.85,1.3.92,2.07,1.13,7.31,3.38-5.3-5.58-2.07-1.13ZM31.41,53.95l.82.83c5.49,1.51-5.84-5.3-.82-.83ZM30.73,54.35c-2.9-2.44.9,1.21-.28,1.16-3.06-2.23-1.81-.65-.08,1.07,1.87,2.78,3.42-1.67.36-2.23ZM28.94,36.59l.75.68c3.96.33-.6-2.58-.75-.68ZM26.66,38.56c.52-.13,1.34.17,1.84.55,4.17,2.85-.72-4.69-1.84-.55ZM26.66,38.56c.52-.13,1.34.17,1.84.55,4.17,2.85-.72-4.69-1.84-.55ZM28.94,36.59l.75.68c3.96.33-.6-2.58-.75-.68ZM32.47,34.97c1.09.5,2.29-1.38,3.85-.2,5.84-1.11-2.14-1.86-3.85.2ZM45.85,33.35c.39.89.58-.27.5-.57,3.7-.57.58-2.26-.5.57ZM30.73,54.35c-2.9-2.44.9,1.21-.28,1.16-3.06-2.23-1.81-.65-.08,1.07,1.87,2.78,3.42-1.67.36-2.23ZM31.41,53.95l.82.83c5.49,1.51-5.84-5.3-.82-.83ZM32.39,52.48c.38.85,1.3.92,2.07,1.13,7.31,3.38-5.3-5.58-2.07-1.13ZM36.03,49.78c1.8-.36-.23-.94-1.31-1.79-2.49-3.73.37.3-.41,1.45,1.04,1.02,4.56,2.84,1.72.34ZM32.89,50.78c.48.7,1.79.39,2.41,1.08,5.54,2.29-.49-1.49-2.41-1.08ZM41.3,62.02c-.52-1.07-5.53-6.77-3.25-2.47,2.07,5.14-1.3-.64-1.65-2.39-.38,1.07.82,4.59,1.55,5.79,1.86,2.86,1.02-1.57,3.06,1.28-1.12-2.5.53-1.14.29-2.21ZM45.96,58.52c-.74-5.39-2.34,2.49-.16,3.79.67,1.93,1.38,1.14,1.62-1.04-1.58.03.65-3.43-1.46-2.75ZM48.76,43.99c-.73,3.88-1.48,2.26-.43-.63-.25-3.72-2.51,2.27-1.51,4.03,1.65,2.62,3.3-6.46,1.94-3.4ZM49.36,58.99v.55c1.15-2.84.2-4.39,0-.55ZM52.97,72.96l.36.6c.8-2.6-1.99-4.25-.36-.6ZM61.51,85.64c-1.48-2.33-1.13.35.24,1.78,2.19,2.6.51-1.48-.24-1.78ZM61.51,85.64c-1.48-2.33-1.13.35.24,1.78,2.19,2.6.51-1.48-.24-1.78ZM52.97,72.96l.36.6c.8-2.6-1.99-4.25-.36-.6ZM49.36,58.99v.55c1.15-2.84.2-4.39,0-.55ZM48.76,43.99c-.73,3.88-1.48,2.26-.43-.63-.25-3.72-2.51,2.27-1.51,4.03,1.65,2.62,3.3-6.46,1.94-3.4ZM45.85,33.35c.39.89.58-.27.5-.57,3.7-.57.58-2.26-.5.57ZM45.96,58.52c-.74-5.39-2.34,2.49-.16,3.79.67,1.93,1.38,1.14,1.62-1.04-1.58.03.65-3.43-1.46-2.75ZM41.3,62.02c-.52-1.07-5.53-6.77-3.25-2.47,2.07,5.14-1.3-.64-1.65-2.39-.38,1.07.82,4.59,1.55,5.79,1.86,2.86,1.02-1.57,3.06,1.28-1.12-2.5.53-1.14.29-2.21ZM32.89,50.78c.48.7,1.79.39,2.41,1.08,5.54,2.29-.49-1.49-2.41-1.08ZM32.47,34.97c1.09.5,2.29-1.38,3.85-.2,5.84-1.11-2.14-1.86-3.85.2ZM36.03,49.78c1.8-.36-.23-.94-1.31-1.79-2.49-3.73.37.3-.41,1.45,1.04,1.02,4.56,2.84,1.72.34ZM32.39,52.48c.38.85,1.3.92,2.07,1.13,7.31,3.38-5.3-5.58-2.07-1.13ZM31.41,53.95l.82.83c5.49,1.51-5.84-5.3-.82-.83ZM30.73,54.35c-2.9-2.44.9,1.21-.28,1.16-3.06-2.23-1.81-.65-.08,1.07,1.87,2.78,3.42-1.67.36-2.23ZM28.94,36.59l.75.68c3.96.33-.6-2.58-.75-.68ZM26.66,38.56c.52-.13,1.34.17,1.84.55,4.17,2.85-.72-4.69-1.84-.55ZM26.66,38.56c.52-.13,1.34.17,1.84.55,4.17,2.85-.72-4.69-1.84-.55ZM28.94,36.59l.75.68c3.96.33-.6-2.58-.75-.68ZM32.47,34.97c1.09.5,2.29-1.38,3.85-.2,5.84-1.11-2.14-1.86-3.85.2ZM45.85,33.35c.39.89.58-.27.5-.57,3.7-.57.58-2.26-.5.57ZM30.73,54.35c-2.9-2.44.9,1.21-.28,1.16-3.06-2.23-1.81-.65-.08,1.07,1.87,2.78,3.42-1.67.36-2.23ZM31.41,53.95l.82.83c5.49,1.51-5.84-5.3-.82-.83ZM32.39,52.48c.38.85,1.3.92,2.07,1.13,7.31,3.38-5.3-5.58-2.07-1.13ZM36.03,49.78c1.8-.36-.23-.94-1.31-1.79-2.49-3.73.37.3-.41,1.45,1.04,1.02,4.56,2.84,1.72.34ZM32.89,50.78c.48.7,1.79.39,2.41,1.08,5.54,2.29-.49-1.49-2.41-1.08ZM41.3,62.02c-.52-1.07-5.53-6.77-3.25-2.47,2.07,5.14-1.3-.64-1.65-2.39-.38,1.07.82,4.59,1.55,5.79,1.86,2.86,1.02-1.57,3.06,1.28-1.12-2.5.53-1.14.29-2.21ZM45.96,58.52c-.74-5.39-2.34,2.49-.16,3.79.67,1.93,1.38,1.14,1.62-1.04-1.58.03.65-3.43-1.46-2.75ZM48.76,43.99c-.73,3.88-1.48,2.26-.43-.63-.25-3.72-2.51,2.27-1.51,4.03,1.65,2.62,3.3-6.46,1.94-3.4ZM49.36,58.99v.55c1.15-2.84.2-4.39,0-.55ZM52.97,72.96l.36.6c.8-2.6-1.99-4.25-.36-.6ZM61.51,85.64c-1.48-2.33-1.13.35.24,1.78,2.19,2.6.51-1.48-.24-1.78ZM61.51,85.64c-1.48-2.33-1.13.35.24,1.78,2.19,2.6.51-1.48-.24-1.78ZM52.97,72.96l.36.6c.8-2.6-1.99-4.25-.36-.6ZM49.36,58.99v.55c1.15-2.84.2-4.39,0-.55ZM48.76,43.99c-.73,3.88-1.48,2.26-.43-.63-.25-3.72-2.51,2.27-1.51,4.03,1.65,2.62,3.3-6.46,1.94-3.4ZM45.85,33.35c.39.89.58-.27.5-.57,3.7-.57.58-2.26-.5.57ZM45.96,58.52c-.74-5.39-2.34,2.49-.16,3.79.67,1.93,1.38,1.14,1.62-1.04-1.58.03.65-3.43-1.46-2.75ZM41.3,62.02c-.52-1.07-5.53-6.77-3.25-2.47,2.07,5.14-1.3-.64-1.65-2.39-.38,1.07.82,4.59,1.55,5.79,1.86,2.86,1.02-1.57,3.06,1.28-1.12-2.5.53-1.14.29-2.21ZM32.89,50.78c.48.7,1.79.39,2.41,1.08,5.54,2.29-.49-1.49-2.41-1.08ZM32.47,34.97c1.09.5,2.29-1.38,3.85-.2,5.84-1.11-2.14-1.86-3.85.2ZM36.03,49.78c1.8-.36-.23-.94-1.31-1.79-2.49-3.73.37.3-.41,1.45,1.04,1.02,4.56,2.84,1.72.34ZM32.39,52.48c.38.85,1.3.92,2.07,1.13,7.31,3.38-5.3-5.58-2.07-1.13ZM31.41,53.95l.82.83c5.49,1.51-5.84-5.3-.82-.83ZM30.73,54.35c-2.9-2.44.9,1.21-.28,1.16-3.06-2.23-1.81-.65-.08,1.07,1.87,2.78,3.42-1.67.36-2.23ZM28.94,36.59l.75.68c3.96.33-.6-2.58-.75-.68ZM26.66,38.56c.52-.13,1.34.17,1.84.55,4.17,2.85-.72-4.69-1.84-.55ZM26.66,38.56c.52-.13,1.34.17,1.84.55,4.17,2.85-.72-4.69-1.84-.55ZM28.94,36.59l.75.68c3.96.33-.6-2.58-.75-.68ZM32.47,34.97c1.09.5,2.29-1.38,3.85-.2,5.84-1.11-2.14-1.86-3.85.2ZM45.85,33.35c.39.89.58-.27.5-.57,3.7-.57.58-2.26-.5.57ZM30.73,54.35c-2.9-2.44.9,1.21-.28,1.16-3.06-2.23-1.81-.65-.08,1.07,1.87,2.78,3.42-1.67.36-2.23ZM31.41,53.95l.82.83c5.49,1.51-5.84-5.3-.82-.83ZM32.39,52.48c.38.85,1.3.92,2.07,1.13,7.31,3.38-5.3-5.58-2.07-1.13ZM36.03,49.78c1.8-.36-.23-.94-1.31-1.79-2.49-3.73.37.3-.41,1.45,1.04,1.02,4.56,2.84,1.72.34ZM32.89,50.78c.48.7,1.79.39,2.41,1.08,5.54,2.29-.49-1.49-2.41-1.08ZM41.3,62.02c-.52-1.07-5.53-6.77-3.25-2.47,2.07,5.14-1.3-.64-1.65-2.39-.38,1.07.82,4.59,1.55,5.79,1.86,2.86,1.02-1.57,3.06,1.28-1.12-2.5.53-1.14.29-2.21ZM45.96,58.52c-.74-5.39-2.34,2.49-.16,3.79.67,1.93,1.38,1.14,1.62-1.04-1.58.03.65-3.43-1.46-2.75ZM48.76,43.99c-.73,3.88-1.48,2.26-.43-.63-.25-3.72-2.51,2.27-1.51,4.03,1.65,2.62,3.3-6.46,1.94-3.4ZM49.36,58.99v.55c1.15-2.84.2-4.39,0-.55ZM52.97,72.96l.36.6c.8-2.6-1.99-4.25-.36-.6ZM61.51,85.64c-1.48-2.33-1.13.35.24,1.78,2.19,2.6.51-1.48-.24-1.78ZM61.51,85.64c-1.48-2.33-1.13.35.24,1.78,2.19,2.6.51-1.48-.24-1.78ZM52.97,72.96l.36.6c.8-2.6-1.99-4.25-.36-.6ZM49.36,58.99v.55c1.15-2.84.2-4.39,0-.55ZM48.76,43.99c-.73,3.88-1.48,2.26-.43-.63-.25-3.72-2.51,2.27-1.51,4.03,1.65,2.62,3.3-6.46,1.94-3.4ZM45.85,33.35c.39.89.58-.27.5-.57,3.7-.57.58-2.26-.5.57ZM45.96,58.52c-.74-5.39-2.34,2.49-.16,3.79.67,1.93,1.38,1.14,1.62-1.04-1.58.03.65-3.43-1.46-2.75ZM41.3,62.02c-.52-1.07-5.53-6.77-3.25-2.47,2.07,5.14-1.3-.64-1.65-2.39-.38,1.07.82,4.59,1.55,5.79,1.86,2.86,1.02-1.57,3.06,1.28-1.12-2.5.53-1.14.29-2.21ZM32.89,50.78c.48.7,1.79.39,2.41,1.08,5.54,2.29-.49-1.49-2.41-1.08ZM32.47,34.97c1.09.5,2.29-1.38,3.85-.2,5.84-1.11-2.14-1.86-3.85.2ZM36.03,49.78c1.8-.36-.23-.94-1.31-1.79-2.49-3.73.37.3-.41,1.45,1.04,1.02,4.56,2.84,1.72.34ZM32.39,52.48c.38.85,1.3.92,2.07,1.13,7.31,3.38-5.3-5.58-2.07-1.13ZM31.41,53.95l.82.83c5.49,1.51-5.84-5.3-.82-.83ZM30.73,54.35c-2.9-2.44.9,1.21-.28,1.16-3.06-2.23-1.81-.65-.08,1.07,1.87,2.78,3.42-1.67.36-2.23ZM28.94,36.59l.75.68c3.96.33-.6-2.58-.75-.68ZM26.66,38.56c.52-.13,1.34.17,1.84.55,4.17,2.85-.72-4.69-1.84-.55ZM26.66,38.56c.52-.13,1.34.17,1.84.55,4.17,2.85-.72-4.69-1.84-.55ZM28.94,36.59l.75.68c3.96.33-.6-2.58-.75-.68ZM32.47,34.97c1.09.5,2.29-1.38,3.85-.2,5.84-1.11-2.14-1.86-3.85.2ZM45.85,33.35c.39.89.58-.27.5-.57,3.7-.57.58-2.26-.5.57ZM30.73,54.35c-2.9-2.44.9,1.21-.28,1.16-3.06-2.23-1.81-.65-.08,1.07,1.87,2.78,3.42-1.67.36-2.23ZM31.41,53.95l.82.83c5.49,1.51-5.84-5.3-.82-.83ZM32.39,52.48c.38.85,1.3.92,2.07,1.13,7.31,3.38-5.3-5.58-2.07-1.13ZM36.03,49.78c1.8-.36-.23-.94-1.31-1.79-2.49-3.73.37.3-.41,1.45,1.04,1.02,4.56,2.84,1.72.34ZM32.89,50.78c.48.7,1.79.39,2.41,1.08,5.54,2.29-.49-1.49-2.41-1.08ZM41.3,62.02c-.52-1.07-5.53-6.77-3.25-2.47,2.07,5.14-1.3-.64-1.65-2.39-.38,1.07.82,4.59,1.55,5.79,1.86,2.86,1.02-1.57,3.06,1.28-1.12-2.5.53-1.14.29-2.21ZM45.96,58.52c-.74-5.39-2.34,2.49-.16,3.79.67,1.93,1.38,1.14,1.62-1.04-1.58.03.65-3.43-1.46-2.75ZM48.76,43.99c-.73,3.88-1.48,2.26-.43-.63-.25-3.72-2.51,2.27-1.51,4.03,1.65,2.62,3.3-6.46,1.94-3.4ZM49.36,58.99v.55c1.15-2.84.2-4.39,0-.55ZM52.97,72.96l.36.6c.8-2.6-1.99-4.25-.36-.6ZM61.51,85.64c-1.48-2.33-1.13.35.24,1.78,2.19,2.6.51-1.48-.24-1.78ZM61.51,85.64c-1.48-2.33-1.13.35.24,1.78,2.19,2.6.51-1.48-.24-1.78ZM52.97,72.96l.36.6c.8-2.6-1.99-4.25-.36-.6ZM49.36,58.99v.55c1.15-2.84.2-4.39,0-.55ZM48.76,43.99c-.73,3.88-1.48,2.26-.43-.63-.25-3.72-2.51,2.27-1.51,4.03,1.65,2.62,3.3-6.46,1.94-3.4ZM45.85,33.35c.39.89.58-.27.5-.57,3.7-.57.58-2.26-.5.57ZM45.96,58.52c-.74-5.39-2.34,2.49-.16,3.79.67,1.93,1.38,1.14,1.62-1.04-1.58.03.65-3.43-1.46-2.75ZM41.3,62.02c-.52-1.07-5.53-6.77-3.25-2.47,2.07,5.14-1.3-.64-1.65-2.39-.38,1.07.82,4.59,1.55,5.79,1.86,2.86,1.02-1.57,3.06,1.28-1.12-2.5.53-1.14.29-2.21ZM32.89,50.78c.48.7,1.79.39,2.41,1.08,5.54,2.29-.49-1.49-2.41-1.08ZM32.47,34.97c1.09.5,2.29-1.38,3.85-.2,5.84-1.11-2.14-1.86-3.85.2ZM36.03,49.78c1.8-.36-.23-.94-1.31-1.79-2.49-3.73.37.3-.41,1.45,1.04,1.02,4.56,2.84,1.72.34ZM32.39,52.48c.38.85,1.3.92,2.07,1.13,7.31,3.38-5.3-5.58-2.07-1.13ZM31.41,53.95l.82.83c5.49,1.51-5.84-5.3-.82-.83ZM30.73,54.35c-2.9-2.44.9,1.21-.28,1.16-3.06-2.23-1.81-.65-.08,1.07,1.87,2.78,3.42-1.67.36-2.23ZM28.94,36.59l.75.68c3.96.33-.6-2.58-.75-.68ZM26.66,38.56c.52-.13,1.34.17,1.84.55,4.17,2.85-.72-4.69-1.84-.55ZM26.66,38.56c.52-.13,1.34.17,1.84.55,4.17,2.85-.72-4.69-1.84-.55ZM28.94,36.59l.75.68c3.96.33-.6-2.58-.75-.68ZM32.47,34.97c1.09.5,2.29-1.38,3.85-.2,5.84-1.11-2.14-1.86-3.85.2ZM45.85,33.35c.39.89.58-.27.5-.57,3.7-.57.58-2.26-.5.57ZM30.73,54.35c-2.9-2.44.9,1.21-.28,1.16-3.06-2.23-1.81-.65-.08,1.07,1.87,2.78,3.42-1.67.36-2.23ZM31.41,53.95l.82.83c5.49,1.51-5.84-5.3-.82-.83ZM32.39,52.48c.38.85,1.3.92,2.07,1.13,7.31,3.38-5.3-5.58-2.07-1.13ZM36.03,49.78c1.8-.36-.23-.94-1.31-1.79-2.49-3.73.37.3-.41,1.45,1.04,1.02,4.56,2.84,1.72.34ZM32.89,50.78c.48.7,1.79.39,2.41,1.08,5.54,2.29-.49-1.49-2.41-1.08ZM41.3,62.02c-.52-1.07-5.53-6.77-3.25-2.47,2.07,5.14-1.3-.64-1.65-2.39-.38,1.07.82,4.59,1.55,5.79,1.86,2.86,1.02-1.57,3.06,1.28-1.12-2.5.53-1.14.29-2.21ZM45.96,58.52c-.74-5.39-2.34,2.49-.16,3.79.67,1.93,1.38,1.14,1.62-1.04-1.58.03.65-3.43-1.46-2.75ZM48.76,43.99c-.73,3.88-1.48,2.26-.43-.63-.25-3.72-2.51,2.27-1.51,4.03,1.65,2.62,3.3-6.46,1.94-3.4ZM49.36,58.99v.55c1.15-2.84.2-4.39,0-.55ZM52.97,72.96l.36.6c.8-2.6-1.99-4.25-.36-.6ZM61.51,85.64c-1.48-2.33-1.13.35.24,1.78,2.19,2.6.51-1.48-.24-1.78ZM61.51,85.64c-1.48-2.33-1.13.35.24,1.78,2.19,2.6.51-1.48-.24-1.78ZM52.97,72.96l.36.6c.8-2.6-1.99-4.25-.36-.6ZM49.36,58.99v.55c1.15-2.84.2-4.39,0-.55ZM48.76,43.99c-.73,3.88-1.48,2.26-.43-.63-.25-3.72-2.51,2.27-1.51,4.03,1.65,2.62,3.3-6.46,1.94-3.4ZM45.85,33.35c.39.89.58-.27.5-.57,3.7-.57.58-2.26-.5.57ZM45.96,58.52c-.74-5.39-2.34,2.49-.16,3.79.67,1.93,1.38,1.14,1.62-1.04-1.58.03.65-3.43-1.46-2.75ZM41.3,62.02c-.52-1.07-5.53-6.77-3.25-2.47,2.07,5.14-1.3-.64-1.65-2.39-.38,1.07.82,4.59,1.55,5.79,1.86,2.86,1.02-1.57,3.06,1.28-1.12-2.5.53-1.14.29-2.21ZM32.89,50.78c.48.7,1.79.39,2.41,1.08,5.54,2.29-.49-1.49-2.41-1.08ZM32.47,34.97c1.09.5,2.29-1.38,3.85-.2,5.84-1.11-2.14-1.86-3.85.2ZM36.03,49.78c1.8-.36-.23-.94-1.31-1.79-2.49-3.73.37.3-.41,1.45,1.04,1.02,4.56,2.84,1.72.34ZM32.39,52.48c.38.85,1.3.92,2.07,1.13,7.31,3.38-5.3-5.58-2.07-1.13ZM31.41,53.95l.82.83c5.49,1.51-5.84-5.3-.82-.83ZM30.73,54.35c-2.9-2.44.9,1.21-.28,1.16-3.06-2.23-1.81-.65-.08,1.07,1.87,2.78,3.42-1.67.36-2.23ZM28.94,36.59l.75.68c3.96.33-.6-2.58-.75-.68ZM26.66,38.56c.52-.13,1.34.17,1.84.55,4.17,2.85-.72-4.69-1.84-.55Z"/>
  <path class="st1" d="M60.56,36.12c-.55.16-.45-.67-.87-.81-4.47-2.28,2.16-1.48.87.81Z"/>
  <path class="st1" d="M25.74,27.2c-3.35.34,3.67-1.89,4-1.59,3.35,2.55-1.87-.01-4,1.59Z"/>
  <path class="st1" d="M30.26,21.24l-.81-.04c-.21-1.68,4.82-.49.81.04Z"/>
  <path class="st1" d="M24.35,16.62c-2.29-1.08.03-5.16,2.44-3.24,2.87,3.86-5.26-.45-2.44,3.24Z"/>
  <path class="st1" d="M33.49,27.52c-1.35.02-3.83-2.87-3.01-4.32,1.45.63,4.41.93,4.9,2.52-2.96-1.54.6,1.86-1.89,1.8Z"/>
  <path class="st1" d="M37.57,28.87c.82,1.55-.36,4.82-2.47,2.01-1.51-2.83-2.53-1.42-1.44.44-2.06-2.41-6.67-1.11-10.11.06-2.4-.27,6.26-2.06,7.18-2.47,1.93.04,10.42-3.81,7.59-.41,2.39,2.85.88,2.2-.75.37Z"/>
  <path class="st1" d="M52.18,30.75c-4.15-.35-8.5.17-13.08,1.08-5.08,1.06-9.7,3.06-14.83,3.93-5,.67,1,1.85-.43,2.11-2.61.9,3.11,1.52-.34,2.47-2.13-.41-4.35-1.14-3.44-3.38-4.79.62-9,2.61-5.21,7.48h.27c-.43-2.47-.37-6.82,3.76-5.35-5.51,1.1,3.82,6.85,2.64,2.31,2.32.11,4.53-1.37,3.32.88,4.57-.5,7.73-4.46,12.14-3.91,3.44-.46,7.19-.8,10.89-2.18,3.04-.22,5.97-3.5,4.31-5.44ZM28.5,39.11c-.5-.38-1.32-.68-1.84-.55,1.12-4.14,6.01,3.4,1.84.55ZM29.69,37.27l-.75-.68c.15-1.9,4.71,1.01.75.68ZM36.32,34.77c-1.56-1.18-2.76.7-3.85.2,1.71-2.06,9.69-1.31,3.85-.2ZM46.35,32.78c.08.3-.11,1.46-.5.57,1.08-2.83,4.2-1.14.5-.57Z"/>
  <path class="st1" d="M26.48,47.87c-.05.14-1.91-.45-1.14-.96,5.75.73-4.96-1.81.73-1.22,3.68-.12,2.5,2.04.41,2.18Z"/>
  <path class="st1" d="M22.58,52.78l-.49-.18c-3.86-1.76,2.88-.76.49.18Z"/>
  <path class="st1" d="M21.49,62.96c-1.46-.51-1.39-2.79-2.07-4-1.88-5.75,2.5,2.23,2.07,4Z"/>
  <path class="st1" d="M24.22,70.01c-3.13-1.98-3.72-6.7-5.71-9.75-2.18-5.21,1.4-.29,1.85,1.88,2.35,2.84,1.43,4.4,3.86,7.87Z"/>
  <path class="st1" d="M32.39,71.57c.31-.02-2.12-.68-1.08-.93-.77-.79-2.48-3.64,1.43-1.73,3.12,1.56,3.38.51,1.9-1.97,2.21-.94.91,4.36,3.08,5,4.23,5.52-2.94.17-5.33-.37Z"/>
  <path class="st1" d="M51.83,88.55c-3.29-.76,1.2-1.06,2.03.18,5.67.91-.35,1.31-2.03-.18Z"/>
  <path class="st1" d="M50.95,90.2c-.5-.32-1.32-.3-1.59-.95-3.92-2.5.46-1.13,1.85.16,2.58.35,2.6,1.53-.26.79Z"/>
  <path class="st1" d="M53.04,92.23l-.84-.28c-3.72-2.33,4.67.77.84.28Z"/>
  <path class="st1" d="M52.99,95.02l-.6-.23-.7-.32c-3.13-2.79,6.57,2.04,1.3.55Z"/>
  <path class="st1" d="M87.17,106.48l-.68.45c-1.3-.9,3.95-2.81.68-.45Z"/>
  <path class="st1" d="M105,103.66c-.87,1.84-6.27.15-8.64.63l-1.01-.07-.63-.1c.33-2.49,7.4-.53,10.28-.46Z"/>
  <path class="st1" d="M62.87,105.98c-5.17-2.18,4.23.68,5.16.48,5.57,2.06-3.32.68-5.16-.48Z"/>
  <path class="st1" d="M90.59,109.89c-8.08,1.57-16.4-.15-24.45-1.27-5.07-.64-9.6-2.75-14.23-4.75-.67-.32-1.31-.72-1.95-1.09-3.18-1.76-2.78-2.13.31-.39,1.1.87,8.85,4.05,5.16,1.95-1.59-.4-10.56-5.33-4.65-3.17,4.73,2.92,10.18,4.47,15.23,6.72,4.44.58,9.13,1.76,13.5.82,3.64,1.82,7.42-.47,11.08,1.18Z"/>
  <path class="st1" d="M43.1,97.64c-1.89-.4-3.18-2.37-4.52-3.67-3.96-2.52-6.54-6.74-8.72-10.78-2.81-4.24-6.18-8.49-8.1-13.45-2.25-5.15,1.42.38,1.94,2.31,1.18,3.77,4.89,5.93,5.26,8.43,4.11,2.37,2,6.23,5.45,7.32,1.53-.77,1.69,4.66,4.95,3.53-1.81.85.76,1.85,1.67,3.43,2.05-.28,6.56,4.54,2.07,2.88Z"/>
  <path class="st1" d="M42.55,89.49l-.92-.2c-3.77-2.99,1.77-2.1,4.22-.79,5.4,1.2-1.14,2.64-3.3.99Z"/>
  <path class="st1" d="M40.81,83.46c-.93-.64-4.71-1.93-4.14-2.78,4.47,2.35,1.14-.09-.83-1.65,3.6.89-2.9-2.67.54-1.73,1.02.25-1.54-2.1,1.82-.39-3.3-2.68,2.31-.46,3.73-.18.2.84-4,.72-.33,2.36-2.14-.06-2.79-.23.27,1.64-1.2.97,2.42,1.74,1.18,3.18,3.69,2.87-.67.73-2.24-.45Z"/>
  <path class="st1" d="M86.19,100.47c-3.91,1.14-6.8-1.36-8.72-3.86-4.39-1.01-9.46-3.25-11.65-7.14-.89-1.46,1.29.21-.77-2.18-2.64-2.35-3.96-5.02-5.73-7.88-2.11-1.13-2.37-4.44-2.58-.14,0-2.72-2.56-4.56-3.19-3.79-.01-2.64,2.76-1.32.82-3.27-.42-2.74-1.79-5.59-2.2-8.68-.64-1.49-.09-4.68-2.19-1.31-.76,3.57-.25-4.38.94-1.76,1.49-2.56-.39-2.38-.63-2.03,1-2.26.61-5.41-.29-4.2.54-2.39.86-8.8-.81-7.66,1.01-2.5,1.92-11.44-2.47-8.03-1.78.03-4.85.64-6.31,1.37,4.56,2.51-.46.91-2.32.51-.24,2.33-2.08,1.32-4.38,1.34,3.67.45-1.79,3.75-3.89,2.47-2.74,1.31,2.36,4.57.05,5.58.28,1.52-4.19-.55-3.84,2.96-2.65-1.12-.36,4.16.96,2.38,4.51,1.22,3.18,4.01,3.29,6.65-.74,1.54-3.63-3.62-.64-3.38-2.36-3.83-2.61-1.38-4.56.39-.45.13,4.99,2.53,1.57,3.72,3.01.47,3.1,3.1,3.71,4.76,1.81,1.88,1.44-2.08,3.6.18-1.37-2.02-7.25-5.68-2.52-4.51-.03-2.03-.86-3.67.6-3.63,1.44-2.6-1.51,6.42,1.73,3.11.9-.39,1.12-2.6,2.73.21,2.34,2.3.85,3.97-2.46,1.86.59,2.01,4.42,2.72,3.7,5.86.76,2.76,1.83,1.74,2.76,1.58.73,2.68,1.14.71,1.18-.57,3.34.72,2.56,2.69,3.6,4.07,2.3,1.04-3.29-7.04.66-2.43,3.84,3.46,1.92,5.06-1.32,4.81,1.75.54,2.66,3.08,5.22,2.98,2.69,1.28,4.52,6.2-.12,4.15-1.61-1.45-7.31-3.24-2.65-.48,4.3,1.99,7.71,3.18,11.86,5.68,2.96,2.12,4.25,4.54,5.37,5.02-2.49,1.19-7.51-.95-3.78-1.61-2.33-.42-4.94-1.6-2.71,1.3,1.89,1.58,6.71,1.42,7.58,1.59-.73,1.61-1.99,1.74.03,1.86-2.25,1.22.72,1.41.93,2.1,3.58-2.14,2.4,5.01,6.07.6,3.62-2.64-3.13,3.27,1.33.47,3.23-2.16,7.99,1.02,11,2.06,2.16-.11,4.27,1.87,6.49.67,4.27-1.15-8.36-1.71-5.05-3.75ZM34.72,47.99c1.08.85,3.11,1.43,1.31,1.79,2.84,2.5-.68.68-1.72-.34.78-1.15-2.08-5.18.41-1.45ZM35.3,51.86c-.62-.69-1.93-.38-2.41-1.08,1.92-.41,7.95,3.37,2.41,1.08ZM30.37,56.58c-1.73-1.72-2.98-3.3.08-1.07,1.18.05-2.62-3.6.28-1.16,3.06.56,1.51,5.01-.36,2.23ZM32.23,54.78l-.82-.83c-5.02-4.47,6.31,2.34.82.83ZM34.46,53.61c-.77-.21-1.69-.28-2.07-1.13-3.23-4.45,9.38,4.51,2.07,1.13ZM41.01,64.23c-2.04-2.85-1.2,1.58-3.06-1.28-.73-1.2-1.93-4.72-1.55-5.79.35,1.75,3.72,7.53,1.65,2.39-2.28-4.3,2.73,1.4,3.25,2.47.24,1.07-1.41-.29-.29,2.21ZM45.8,62.31c-2.18-1.3-.58-9.18.16-3.79,2.11-.68-.12,2.78,1.46,2.75-.24,2.18-.95,2.97-1.62,1.04ZM46.82,47.39c-1-1.76,1.26-7.75,1.51-4.03-1.05,2.89-.3,4.51.43.63,1.36-3.06-.29,6.02-1.94,3.4ZM49.36,58.99c.2-3.84,1.15-2.29.01.55v-.55ZM53.33,73.56l-.36-.6c-1.63-3.65,1.16-2,.36.6ZM61.75,87.42c-1.37-1.43-1.72-4.11-.24-1.78.75.3,2.43,4.38.24,1.78Z"/>
</svg>