<?xml version="1.0" encoding="UTF-8"?>
<svg id="Layer_1" xmlns="http://www.w3.org/2000/svg" version="1.1" viewBox="0 0 24 24">
  <!-- Generator: Adobe Illustrator 30.1.0, SVG Export Plug-In . SVG Version: 2.1.1 Build 136)  -->
  <defs>
    <style>
      .st0 {
        fill: #fff;
      }
    </style>
  </defs>
  <path class="st0" d="M24,12.3c0,5.29-3.43,9.79-8.24,11.37-.61.12-.82-.26-.82-.57,0-.39.01-1.68.01-3.29,0-1.12-.39-1.86-.81-2.22,2.67-.29,5.48-1.31,5.48-5.92,0-1.31-.47-2.38-1.23-3.22.12-.3.52-1.52-.12-3.18,0,0-1.01-.32-3.29,1.23-.96-.26-1.98-.4-3-.4s-2.04.14-3,.4c-2.29-1.55-3.3-1.23-3.3-1.23-.64,1.66-.24,2.88-.1,3.18-.77.84-1.24,1.91-1.24,3.22,0,4.6,2.81,5.63,5.47,5.93-.34.3-.65.83-.76,1.6-.69.31-2.42.84-3.49-.99,0,0-.64-1.15-1.84-1.24,0,0-1.17,0-.09.73,0,0,.79.37,1.34,1.75,0,0,.7,2.34,4.04,1.61,0,1,.01,1.76.01,2.04,0,.32-.21.7-.82.58C3.44,22.1,0,17.6,0,12.3,0,5.67,5.37.3,12,.3s12,5.37,12,12Z"/>
</svg>