<?xml version="1.0" encoding="UTF-8"?>
<svg id="Layer_1" data-name="Layer 1" xmlns="http://www.w3.org/2000/svg" viewBox="0 0 1080.01 1440.56">
  <path d="M1080,468.56c.58,159.83-82.69,309.46-216,394.43v-88.96c191.28-155.08,191.23-455.9,0-610.94-51.67-42.71-113.69-71.86-180-83.99-25.95-12.53-568.82-4.4-612-6.54v1296L0,1440.56V.56c37.12,1.9,671.44-5.15,684,5.51,50.48,7.79,99.11,23.79,144,47.22,153.03,79.03,252.97,241.39,252,415.27Z"/>
  <path d="M864,468.56c-.11-113.94-75.29-210.25-180-241.56-41.42-20.23-416.26-6.83-468-10.44v1008l-72,72V144.56s468,0,468,0c50.39-.02,99.58,11.6,144,33.68,181.57,82.24,238.32,343.75,108,493.98v-203.66Z"/>
  <polygon points="288 288.56 360 360.56 360 1080.56 288 1152.56 288 288.56"/>
  <polygon points="720 720.56 648 792.56 432 792.56 432 720.56 720 720.56"/>
  <polygon points="576 864.56 504 936.56 432 936.56 432 864.56 576 864.56"/>
</svg>